<svg id="banner-animi" width="1799" height="691" viewBox="0 0 1799 691" fill="none" xmlns="http://www.w3.org/2000/svg">
<path id="dash-animi3" opacity="0.3" fill-rule="evenodd" clip-rule="evenodd" d="M368.502 691H372.448L474.685 618.431L502.16 637.94L427.356 691H431.637L471.021 663.076V691H473.158V661.576L504.297 639.44L541.236 665.702V691H543.678V667.578L569.627 685.962L612.367 655.573L651.138 682.96V691H653.275V684.461L662.481 691H667.366L614.809 653.697L656.328 624.058L750.592 691H754.598L658.159 622.558L697.846 594.42L834.066 691H838.482L753.102 630.436H812.327L897.662 691H901.444L812.938 628.185H749.439L700.288 593.294L805.916 518.26L836.139 539.645V595.545L912.46 649.57C909.712 652.196 910.017 655.948 913.376 658.574C917.039 661.2 923.45 661.2 927.113 658.574C930.777 655.948 930.777 651.446 927.113 648.82C923.755 646.569 918.26 646.194 914.597 648.069L838.276 594.045V541.145L919.786 598.547H958.252H958.557L1004.65 565.907C1008.32 567.783 1013.81 567.783 1017.17 565.156C1020.83 562.53 1020.83 558.028 1017.17 555.402C1013.51 552.776 1007.1 552.776 1003.43 555.402C1000.08 557.653 999.771 561.78 1002.52 564.406L957.947 595.921H920.397L808.358 516.384L828.812 501.752L763.787 455.606L794.315 433.846H840.413L873.383 457.107C870.636 459.733 871.247 463.485 874.605 465.736C878.268 468.362 884.679 468.362 888.342 465.736C892.006 463.11 892.006 458.607 888.342 455.981C884.984 453.355 879.489 453.355 875.826 455.231L841.329 430.845H798.589L876.131 375.694L1058.69 505.129L1189.96 505.129H1190.27L1264.15 452.605C1267.81 454.481 1273.3 454.481 1276.66 451.854C1280.33 449.228 1280.33 444.726 1276.66 442.1C1273 439.474 1266.59 439.474 1262.92 442.1C1259.57 444.351 1259.26 448.478 1262.01 451.104L1189.35 502.503H1059L918.26 402.707H978.401L1037.32 444.351C1034.57 446.977 1034.88 450.729 1038.24 453.355C1041.9 455.981 1048.31 455.981 1051.97 453.355C1055.64 450.729 1055.64 446.227 1051.97 443.601C1048.62 441.35 1043.12 440.974 1039.46 442.85L979.011 400.081H914.291L877.963 374.194L970.769 308.539L1267.2 308.539L1496.77 472.489C1494.02 475.115 1494.33 478.867 1497.69 481.493C1501.35 484.119 1507.76 484.119 1511.42 481.493C1515.09 478.867 1515.09 474.365 1511.42 471.738C1508.07 469.487 1502.57 469.112 1498.91 470.988L1267.2 306.663L974.127 306.663L1010.76 280.401L1230.26 280.401H1230.56L1338.63 203.49C1342.3 205.366 1347.79 205.366 1351.15 202.74C1354.81 200.114 1354.81 195.612 1351.15 192.986C1347.49 190.359 1341.08 190.359 1337.41 192.986C1334.05 195.237 1333.75 199.363 1336.5 201.99L1229.65 277.774L1010.15 277.774H1009.84L761.345 454.105L733.87 434.596L995.191 249.261L1186.3 249.261H1186.6L1417.4 85.3111L1737.33 85.3111L1799 129.206V126.205L1737.64 82.6849L1416.79 82.6849H1416.48L1271.47 185.482V124.704L1367.03 56.798C1370.69 58.6738 1376.18 58.6738 1379.54 56.0476C1383.21 53.4214 1383.21 48.9194 1379.54 46.2932C1375.88 43.667 1369.47 43.667 1365.8 46.2932C1362.45 48.5442 1362.14 52.6712 1364.89 55.2974L1269.33 123.203V186.608H1269.95L1185.69 246.26L994.581 246.26H994.275L731.732 432.721L700.288 410.585L1210.11 48.9194V8.77902e-05L1207.97 8.76104e-05V47.4187L698.151 409.085L659.381 381.697L922.229 195.237V161.846L968.937 128.831V52.2959L1042.6 7.36965e-05L1038.35 7.33388e-05L966.8 50.7952L966.8 127.33L922.229 158.845V36.1635L895.974 17.4049L920.64 6.34355e-05L916.371 6.30763e-05L893.838 15.9042L871.304 5.92847e-05L866.94 5.89175e-05L920.092 37.6642V193.736L657.244 380.196L621.831 355.06L808.053 223.374C811.716 225.25 817.212 225.25 820.57 222.624C824.233 219.998 824.233 215.496 820.57 212.87C816.906 210.243 810.495 210.243 806.832 212.87C803.474 215.121 803.169 218.872 805.916 221.874L619.999 353.934L585.807 329.923L808.358 171.976H868.804C869.11 173.101 870.026 174.602 871.552 175.352C875.215 177.979 881.626 177.979 885.29 175.352C888.953 172.726 888.953 168.224 885.29 165.598C881.626 162.972 875.215 162.972 871.552 165.598C870.026 166.723 869.11 167.849 868.804 168.974H807.748H807.443L583.671 327.672L569.933 317.918L559.248 325.421L505.823 287.529V235.005L549.784 203.865L618.778 203.865H619.083L694.793 150.216C698.457 152.092 703.952 152.092 707.31 149.465C710.973 146.839 710.973 142.337 707.31 139.711C703.646 137.085 697.236 137.085 693.572 139.711C690.214 141.962 689.909 146.089 692.656 148.715L618.167 201.614H553.447L682.887 109.697C686.551 111.948 692.046 111.573 695.709 109.322C699.373 106.696 699.373 102.194 695.709 99.5676C692.046 96.9414 685.635 96.9414 681.971 99.5676C678.613 101.819 678.308 105.57 680.75 108.196L519.256 222.999V197.488L615.42 129.206V81.1842L693.572 25.6586C697.236 27.5345 702.731 27.5345 706.089 24.9083C709.752 22.2821 709.752 17.78 706.089 15.1538C702.425 12.5276 696.015 12.5276 692.351 15.1538C688.993 17.4048 688.688 21.5317 691.435 24.1579L613.283 79.6835V127.706L517.119 195.987V224.5L503.686 233.879V289.78L557.111 327.672L522.003 352.434L412.407 274.398V185.857L486.896 132.958C490.559 135.209 496.054 134.834 499.718 132.583C503.381 129.956 503.381 125.454 499.718 122.828C496.054 120.202 489.643 120.202 485.98 122.828C482.622 125.079 482.317 128.831 484.759 131.457L412.407 182.856V111.198L469.495 70.6792V2.54783e-05L467.358 2.52985e-05V69.1786L412.407 108.196V2.06752e-05L410.27 2.04954e-05L410.27 275.898L519.866 353.934L480.485 381.697L337.002 280.025L337.002 37.6642L283.722 9.84829e-06L279.462 9.48988e-06L334.865 39.1648V281.526L478.348 383.198L449.041 403.832L255.492 266.519L255.492 59.7992L170.94 3.59314e-07L166.669 0L253.355 61.2999L253.355 268.02L446.904 405.333L399.585 438.723L77.5121 210.243L77.5121 107.446L5.50596e-05 52.4496L5.47805e-05 55.5218L75.0698 108.947L75.0698 211.744L256.102 340.428H112.925L3.6179e-05 260.297L3.59063e-05 263.299L112.925 343.43L260.376 343.43L397.448 440.599L342.497 479.617L224.658 395.954L35.3831 395.954L2.61411e-05 370.799L2.58837e-05 373.633L34.7725 398.205H224.048L257.018 421.465H176.424H176.118L135.821 449.978H1.89486e-05L1.871e-05 452.605L131.853 452.605L86.3653 484.869C82.7019 482.994 77.2069 482.994 73.8488 485.62C70.1854 488.246 70.1854 492.748 73.8488 495.374C77.5122 498 83.9231 498 87.5865 495.374C90.9446 493.123 91.2498 488.996 88.5023 486.37L176.729 423.716L260.376 423.716L340.055 479.992L310.748 501.002L329.676 514.508H274.725L202.983 463.485C205.731 460.858 205.426 457.107 202.067 454.48C198.404 451.854 191.993 451.854 188.33 454.48C184.666 457.107 184.666 461.609 188.33 464.235C191.688 466.486 197.183 466.861 200.846 464.985L274.419 517.134H333.644L373.941 545.647L349.214 563.28H305.253L266.787 590.668H238.091L173.066 544.522C176.118 541.896 175.813 538.144 172.15 535.518C168.486 532.891 162.075 532.891 158.412 535.518C154.749 538.144 154.749 542.646 158.412 545.272C161.77 547.523 166.96 547.898 170.623 546.022L237.175 593.294H267.092L305.558 565.907H345.245L266.177 622.182H223.437L134.295 559.154H9.03124e-06L8.79268e-06 561.78L133.684 561.78L222.827 624.809H266.787H267.092L376.078 547.523L404.775 567.782L281.746 655.198H195.046L123.304 604.549L4.90754e-06 604.549L4.66898e-06 607.176H122.694L190.466 655.198H3.06714e-07L0 658.574L282.051 658.574H282.357L406.912 570.034L439.272 592.919L301.263 691H305.734L441.409 594.795L472.853 616.93L368.502 691ZM1005.74 691L1098.07 625.559C1101.73 627.435 1107.23 627.435 1110.59 624.809C1114.25 622.182 1114.25 617.68 1110.59 615.054C1106.92 612.428 1100.51 612.428 1096.85 615.054C1093.49 617.305 1093.19 621.432 1095.93 624.058L1001.63 691H1005.74ZM569.628 321.67L315.327 502.127L569.627 682.585L823.928 502.127L569.628 321.67Z" fill="url(#paint0_radial)"/>
<defs>
<radialGradient id="paint0_radial" cx="0" cy="0" r="1" gradientUnits="userSpaceOnUse" gradientTransform="translate(1837.67 104.209) rotate(180) scale(1317.07 841.131)">
<stop stop-color="#FF2C9C"/>
<stop offset="0.0300632" stop-color="#F62F9F"/>
<stop offset="0.2023" stop-color="#C63EB0"/>
<stop offset="0.3737" stop-color="#9E4BBE"/>
<stop offset="0.5413" stop-color="#7F54C9"/>
<stop offset="0.7039" stop-color="#695BD1"/>
<stop offset="0.8594" stop-color="#5C60D5"/>
<stop offset="1" stop-color="#5761D7"/>
</radialGradient>
</defs>
</svg>
