<svg class="bit-about-img" width="761" height="590" viewBox="0 0 761 590" fill="none" xmlns="http://www.w3.org/2000/svg">
<path  class="moving-y delay-0" opacity="0.6" d="M332.286 565.412L66.3405 412.406C54.3905 405.611 56.0307 393.426 69.6209 385.46L308.152 247.684C321.976 239.717 342.83 239.014 354.78 245.809L620.491 398.816C632.441 405.611 630.801 417.795 617.211 425.762L378.68 563.538C365.09 571.504 344.002 572.207 332.286 565.412Z" fill="url(#paint0_linear)"/>
<path  class="moving-y delay-0" opacity="0.6" d="M332.286 565.412L66.3405 412.406C54.3905 405.611 56.0307 393.426 69.6209 385.46L308.152 247.684C321.976 239.717 342.83 239.014 354.78 245.809L620.491 398.816C632.441 405.611 630.801 417.795 617.211 425.762L378.68 563.538C365.09 571.504 344.002 572.207 332.286 565.412Z" fill="url(#paint1_linear)"/>
<path class="moving-y delay-0" opacity="0.6" d="M332.286 565.412L66.3405 412.406C54.3905 405.611 56.0307 393.426 69.6209 385.46L308.152 247.684C321.976 239.717 342.83 239.014 354.78 245.809L620.491 398.816C632.441 405.611 630.801 417.795 617.211 425.762L378.68 563.538C365.09 571.504 344.002 572.207 332.286 565.412Z" fill="url(#paint2_linear)"/>
<path  class="moving-y delay-0" opacity="0.6" d="M332.286 565.412L66.3405 412.406C54.3905 405.611 56.0307 393.426 69.6209 385.46L308.152 247.684C321.976 239.717 342.83 239.014 354.78 245.809L620.491 398.816C632.441 405.611 630.801 417.795 617.211 425.762L378.68 563.538C365.09 571.504 344.002 572.207 332.286 565.412Z" fill="url(#paint3_linear)"/>
<path class="moving-y delay-0" opacity="0.6" d="M332.286 565.412L66.3405 412.406C54.3905 405.611 56.0307 393.426 69.6209 385.46L308.152 247.684C321.976 239.717 342.83 239.014 354.78 245.809L620.491 398.816C632.441 405.611 630.801 417.795 617.211 425.762L378.68 563.538C365.09 571.504 344.002 572.207 332.286 565.412Z" fill="url(#paint4_linear)"/>
<path class="moving-y delay-0" opacity="0.6" d="M332.286 565.412L66.3405 412.406C54.3905 405.611 56.0307 393.426 69.6209 385.46L308.152 247.684C321.976 239.717 342.83 239.014 354.78 245.809L620.491 398.816C632.441 405.611 630.801 417.795 617.211 425.762L378.68 563.538C365.09 571.504 344.002 572.207 332.286 565.412Z" fill="url(#paint5_linear)"/>
<path class="moving-y delay-0" opacity="0.6" d="M332.286 565.412L66.3405 412.406C54.3905 405.611 56.0307 393.426 69.6209 385.46L308.152 247.684C321.976 239.717 342.83 239.014 354.78 245.809L620.491 398.816C632.441 405.611 630.801 417.795 617.211 425.762L378.68 563.538C365.09 571.504 344.002 572.207 332.286 565.412Z" fill="url(#paint6_linear)"/>
<g opacity="0.7">
<g opacity="0.7">
<g opacity="0.7">
<path opacity="0.7" d="M134.064 535.889L197.329 499.571L261.765 493.01L312.845 522.533L358.302 520.659L397.433 497.93" stroke="#2A49F9" stroke-width="0.5349" stroke-miterlimit="10"/>
</g>
<g opacity="0.7">
<path opacity="0.7" d="M259.883 506.366L309.557 534.952L362.746 532.843L430.932 493.479" stroke="#2A49F9" stroke-width="0.5349" stroke-miterlimit="10"/>
</g>
<path opacity="0.7" d="M400.475 499.102C399.069 500.039 396.726 500.039 395.32 499.102C393.914 498.164 393.914 496.993 395.32 496.055C396.726 495.118 399.069 495.118 400.475 496.055C401.881 496.993 401.881 498.399 400.475 499.102Z" fill="#002196"/>
<path opacity="0.7" d="M433.744 494.65C432.339 495.587 429.995 495.587 428.59 494.65C427.184 493.713 427.184 492.541 428.59 491.604C429.995 490.667 432.339 490.667 433.744 491.604C435.15 492.541 435.15 493.947 433.744 494.65Z" fill="#002196"/>
<path opacity="0.7" d="M365.561 534.249C364.155 535.187 361.812 535.187 360.406 534.249C359 533.312 359 532.141 360.406 531.203C361.812 530.266 364.155 530.266 365.561 531.203C366.967 532.141 366.967 533.312 365.561 534.249Z" fill="#002196"/>
<path opacity="0.7" d="M360.873 522.065C359.467 523.002 357.124 523.002 355.718 522.065C354.313 521.128 354.313 519.956 355.718 519.019C357.124 518.082 359.467 518.082 360.873 519.019C362.279 519.956 362.279 521.362 360.873 522.065Z" fill="#002196"/>
<path opacity="0.7" d="M264.334 494.65C262.928 495.587 260.585 495.587 259.179 494.65C257.774 493.713 257.774 492.541 259.179 491.604C260.585 490.667 262.928 490.667 264.334 491.604C265.74 492.541 265.74 493.713 264.334 494.65Z" fill="#002196"/>
<path opacity="0.7" d="M262.455 507.771C261.05 508.708 258.706 508.708 257.301 507.771C255.895 506.834 255.895 505.662 257.301 504.725C258.706 503.788 261.05 503.788 262.455 504.725C263.861 505.662 263.861 506.834 262.455 507.771Z" fill="#002196"/>
<path opacity="0.7" d="M136.637 537.529C135.231 538.466 132.888 538.466 131.482 537.529C130.076 536.592 130.076 535.42 131.482 534.483C132.888 533.545 135.231 533.545 136.637 534.483C138.277 535.186 138.277 536.592 136.637 537.529Z" fill="#002196"/>
</g>
<g opacity="0.7">
<g opacity="0.7">
<path opacity="0.7" d="M536.138 587.203L473.107 550.651L408.437 544.09L357.357 573.613L311.9 571.739L272.77 549.01" stroke="#2A49F9" stroke-width="0.5349" stroke-miterlimit="10"/>
</g>
<g opacity="0.7">
<path opacity="0.7" d="M410.303 557.446L360.628 586.032L307.439 583.923L239.254 544.559" stroke="#2A49F9" stroke-width="0.5349" stroke-miterlimit="10"/>
</g>
<path opacity="0.7" d="M269.722 550.416C271.128 551.354 273.471 551.354 274.877 550.416C276.283 549.479 276.283 548.308 274.877 547.37C273.471 546.433 271.128 546.433 269.722 547.37C268.316 548.308 268.316 549.479 269.722 550.416Z" fill="#002196"/>
<path opacity="0.7" d="M236.449 545.964C237.855 546.902 240.198 546.902 241.604 545.964C243.01 545.027 243.01 543.856 241.604 542.918C240.198 541.981 237.855 541.981 236.449 542.918C235.043 543.856 235.043 545.027 236.449 545.964Z" fill="#002196"/>
<path opacity="0.7" d="M304.634 585.329C306.04 586.266 308.383 586.266 309.789 585.329C311.195 584.392 311.195 583.22 309.789 582.283C308.383 581.346 306.04 581.346 304.634 582.283C303.229 583.22 303.229 584.392 304.634 585.329Z" fill="#002196"/>
<path opacity="0.7" d="M309.32 573.145C310.726 574.082 313.069 574.082 314.475 573.145C315.881 572.208 315.881 571.036 314.475 570.099C313.069 569.162 310.726 569.162 309.32 570.099C307.914 571.036 307.914 572.442 309.32 573.145Z" fill="#002196"/>
<path opacity="0.7" d="M405.859 545.73C407.265 546.667 409.608 546.667 411.014 545.73C412.42 544.793 412.42 543.621 411.014 542.684C409.608 541.747 407.265 541.747 405.859 542.684C404.453 543.621 404.453 545.027 405.859 545.73Z" fill="#002196"/>
<path opacity="0.7" d="M407.732 558.852C409.138 559.789 411.481 559.789 412.887 558.852C414.293 557.914 414.293 556.743 412.887 555.805C411.481 554.868 409.138 554.868 407.732 555.805C406.326 556.743 406.326 558.149 407.732 558.852Z" fill="#002196"/>
<path opacity="0.7" d="M533.558 588.609C534.964 589.547 537.307 589.547 538.713 588.609C540.119 587.672 540.119 586.501 538.713 585.563C537.307 584.626 534.964 584.626 533.558 585.563C531.918 586.501 531.918 587.672 533.558 588.609Z" fill="#002196"/>
</g>
<g opacity="0.7">
<g opacity="0.7">
<path opacity="0.7" d="M309.548 498.399L246.518 462.081L181.847 455.286L130.767 484.809L85.5443 483.169L46.1797 460.441" stroke="#2A49F9" stroke-width="0.5349" stroke-miterlimit="10"/>
</g>
<g opacity="0.7">
<path opacity="0.7" d="M183.953 468.642L134.279 497.462L81.0895 495.353L12.9043 455.989" stroke="#2A49F9" stroke-width="0.5349" stroke-miterlimit="10"/>
</g>
<path opacity="0.7" d="M43.1384 461.612C44.5443 462.549 46.8874 462.549 48.2933 461.612C49.6992 460.675 49.6992 459.503 48.2933 458.566C46.8874 457.628 44.5443 457.628 43.1384 458.566C41.7325 459.503 41.7325 460.909 43.1384 461.612Z" fill="#002196"/>
<path opacity="0.7" d="M9.863 457.16C11.2689 458.097 13.612 458.097 15.0179 457.16C16.4238 456.223 16.4238 455.051 15.0179 454.114C13.612 453.177 11.2689 453.177 9.863 454.114C8.45712 455.051 8.45712 456.457 9.863 457.16Z" fill="#002196"/>
<path opacity="0.7" d="M78.281 496.759C79.6869 497.696 82.03 497.696 83.4359 496.759C84.8417 495.822 84.8417 494.65 83.4359 493.713C82.03 492.776 79.6869 492.776 78.281 493.713C76.8751 494.65 76.8751 495.822 78.281 496.759Z" fill="#002196"/>
<path opacity="0.7" d="M82.9685 484.575C84.3744 485.512 86.7175 485.512 88.1234 484.575C89.5292 483.638 89.5292 482.466 88.1234 481.529C86.7175 480.592 84.3744 480.592 82.9685 481.529C81.5626 482.466 81.5626 483.872 82.9685 484.575Z" fill="#002196"/>
<path opacity="0.7" d="M179.502 457.16C180.908 458.097 183.251 458.097 184.657 457.16C186.062 456.223 186.062 455.051 184.657 454.114C183.251 453.177 180.908 453.177 179.502 454.114C178.096 454.817 178.096 456.223 179.502 457.16Z" fill="#002196"/>
<path opacity="0.7" d="M181.379 470.282C182.784 471.219 185.128 471.219 186.533 470.282C187.939 469.344 187.939 468.173 186.533 467.236C185.128 466.298 182.784 466.298 181.379 467.236C179.738 468.173 179.738 469.344 181.379 470.282Z" fill="#002196"/>
<path opacity="0.7" d="M306.97 500.039C308.376 500.976 310.719 500.976 312.125 500.039C313.531 499.102 313.531 497.93 312.125 496.993C310.719 496.056 308.376 496.056 306.97 496.993C305.565 497.696 305.565 499.102 306.97 500.039Z" fill="#002196"/>
</g>
</g>
<g opacity="0.7">
<g opacity="0.7">
<g opacity="0.7">
<path opacity="0.7" d="M756.638 376.791L693.607 340.239L628.937 333.678L577.857 363.201L532.634 361.327L493.27 338.598" stroke="#2A49F9" stroke-width="0.5349" stroke-miterlimit="10"/>
</g>
<g opacity="0.7">
<path opacity="0.7" d="M630.807 347.034L581.366 375.62L528.177 373.511L459.992 334.146" stroke="#2A49F9" stroke-width="0.5349" stroke-miterlimit="10"/>
</g>
<path opacity="0.7" d="M490.226 340.004C491.632 340.942 493.975 340.942 495.381 340.004C496.787 339.067 496.787 337.896 495.381 336.958C493.975 336.021 491.632 336.021 490.226 336.958C488.82 337.896 488.82 339.067 490.226 340.004Z" fill="#002196"/>
<path opacity="0.7" d="M456.953 335.552C458.359 336.489 460.702 336.489 462.108 335.552C463.514 334.615 463.514 333.443 462.108 332.506C460.702 331.569 458.359 331.569 456.953 332.506C455.547 333.443 455.547 334.615 456.953 335.552Z" fill="#002196"/>
<path opacity="0.7" d="M525.369 374.917C526.775 375.854 529.118 375.854 530.524 374.917C531.93 373.98 531.93 372.808 530.524 371.871C529.118 370.934 526.775 370.934 525.369 371.871C523.963 372.808 523.963 374.214 525.369 374.917Z" fill="#002196"/>
<path opacity="0.7" d="M530.058 362.733C531.464 363.67 533.807 363.67 535.213 362.733C536.619 361.796 536.619 360.624 535.213 359.687C533.807 358.75 531.464 358.75 530.058 359.687C528.652 360.624 528.652 362.03 530.058 362.733Z" fill="#002196"/>
<path opacity="0.7" d="M626.592 335.318C627.997 336.255 630.34 336.255 631.746 335.318C633.152 334.381 633.152 333.209 631.746 332.272C630.34 331.335 627.997 331.335 626.592 332.272C625.186 333.209 625.186 334.615 626.592 335.318Z" fill="#002196"/>
<path opacity="0.7" d="M628.236 348.439C629.642 349.377 631.985 349.377 633.391 348.439C634.797 347.502 634.797 346.331 633.391 345.393C631.985 344.456 629.642 344.456 628.236 345.393C626.83 346.331 626.83 347.737 628.236 348.439Z" fill="#002196"/>
<path opacity="0.7" d="M754.06 378.197C755.466 379.134 757.809 379.134 759.215 378.197C760.621 377.26 760.621 376.088 759.215 375.151C757.809 374.213 755.466 374.213 754.06 375.151C752.654 376.088 752.654 377.494 754.06 378.197Z" fill="#002196"/>
</g>
<g opacity="0.7">
<g opacity="0.7">
<path opacity="0.7" d="M448.533 431.854L511.563 395.536L576.234 388.741L627.314 418.264" stroke="#2A49F9" stroke-width="0.5349" stroke-miterlimit="10"/>
</g>
<g opacity="0.7" class="moving-y delay-0">
<path opacity="0.7" d="M574.117 402.097L623.792 430.917" stroke="#2A49F9" stroke-width="0.5349" stroke-miterlimit="10"/>
</g>
<path opacity="0.7" d="M578.561 390.381C577.155 391.318 574.812 391.318 573.406 390.381C572 389.444 572 388.272 573.406 387.335C574.812 386.398 577.155 386.398 578.561 387.335C579.967 388.272 579.967 389.678 578.561 390.381Z" fill="#002196"/>
<path opacity="0.7" d="M576.709 403.502C575.303 404.44 572.96 404.44 571.554 403.502C570.149 402.565 570.149 401.394 571.554 400.456C572.96 399.519 575.303 399.519 576.709 400.456C578.115 401.394 578.115 402.799 576.709 403.502Z" fill="#002196"/>
<path opacity="0.7" d="M451.106 433.26C449.7 434.197 447.357 434.197 445.951 433.26C444.545 432.323 444.545 431.151 445.951 430.214C447.357 429.276 449.7 429.276 451.106 430.214C452.512 431.151 452.512 432.557 451.106 433.26Z" fill="#002196"/>
</g>
<g opacity="0.7">
<g opacity="0.7">
<path opacity="0.7" d="M455.789 468.174L518.819 431.621L583.49 425.06L634.57 454.584" stroke="#2A49F9" stroke-width="0.5349" stroke-miterlimit="10"/>
</g>
<g opacity="0.7">
<path opacity="0.7" d="M581.615 438.416L631.29 467.002" stroke="#2A49F9" stroke-width="0.5349" stroke-miterlimit="10"/>
</g>
<path opacity="0.7" d="M585.817 426.7C584.411 427.637 582.068 427.637 580.662 426.7C579.256 425.763 579.256 424.591 580.662 423.654C582.068 422.717 584.411 422.717 585.817 423.654C587.223 424.591 587.223 425.997 585.817 426.7Z" fill="#002196"/>
<path opacity="0.7" d="M584.18 439.822C582.774 440.759 580.431 440.759 579.025 439.822C577.619 438.885 577.619 437.713 579.025 436.776C580.431 435.838 582.774 435.838 584.18 436.776C585.586 437.713 585.586 439.119 584.18 439.822Z" fill="#002196"/>
<path opacity="0.7" d="M458.362 469.579C456.956 470.516 454.613 470.516 453.207 469.579C451.801 468.642 451.801 467.47 453.207 466.533C454.613 465.596 456.956 465.596 458.362 466.533C459.768 467.47 459.768 468.642 458.362 469.579Z" fill="#002196"/>
</g>
</g>
<g opacity="0.7">
<g opacity="0.7">
<g opacity="0.7">
<path opacity="0.7" d="M125.416 259.4L188.446 295.718L252.882 302.514L304.197 272.99L349.419 274.63L388.784 297.359" stroke="#2A49F9" stroke-width="0.5349" stroke-miterlimit="10"/>
</g>
<g opacity="0.7">
<path opacity="0.7" d="M251.012 289.157L300.686 260.337L353.875 262.446L422.06 301.81" stroke="#2A49F9" stroke-width="0.5349" stroke-miterlimit="10"/>
</g>
<path opacity="0.7" d="M391.596 296.187C390.19 295.25 387.847 295.25 386.441 296.187C385.035 297.124 385.035 298.296 386.441 299.233C387.847 300.17 390.19 300.17 391.596 299.233C393.002 298.296 393.002 296.89 391.596 296.187Z" fill="#002196"/>
<path opacity="0.7" d="M424.869 300.638C423.464 299.701 421.12 299.701 419.715 300.638C418.309 301.576 418.309 302.747 419.715 303.685C421.12 304.622 423.464 304.622 424.869 303.685C426.51 302.747 426.51 301.341 424.869 300.638Z" fill="#002196"/>
<path opacity="0.7" d="M356.692 261.274C355.286 260.337 352.943 260.337 351.537 261.274C350.131 262.211 350.131 263.383 351.537 264.32C352.943 265.258 355.286 265.258 356.692 264.32C358.098 263.383 358.098 261.977 356.692 261.274Z" fill="#002196"/>
<path opacity="0.7" d="M351.998 273.223C350.592 272.286 348.249 272.286 346.843 273.223C345.438 274.161 345.438 275.332 346.843 276.27C348.249 277.207 350.592 277.207 351.998 276.27C353.404 275.332 353.404 274.161 351.998 273.223Z" fill="#002196"/>
<path opacity="0.7" d="M255.455 300.638C254.05 299.701 251.706 299.701 250.301 300.638C248.895 301.576 248.895 302.747 250.301 303.685C251.706 304.622 254.05 304.622 255.455 303.685C256.861 302.982 256.861 301.576 255.455 300.638Z" fill="#002196"/>
<path opacity="0.7" d="M253.598 287.517C252.192 286.58 249.849 286.58 248.443 287.517C247.037 288.455 247.037 289.626 248.443 290.563C249.849 291.501 252.192 291.501 253.598 290.563C255.004 289.861 255.004 288.455 253.598 287.517Z" fill="#002196"/>
<path opacity="0.7" d="M127.996 257.994C126.591 257.057 124.247 257.057 122.842 257.994C121.436 258.931 121.436 260.103 122.842 261.04C124.247 261.977 126.591 261.977 127.996 261.04C129.402 260.103 129.402 258.697 127.996 257.994Z" fill="#002196"/>
</g>
<g opacity="0.7">
<g opacity="0.7">
<path opacity="0.7" d="M527.265 208.319L464.234 244.638L399.564 251.199L348.484 221.675L303.027 223.55L263.896 246.278" stroke="#2A49F9" stroke-width="0.5349" stroke-miterlimit="10"/>
</g>
<g opacity="0.7">
<path opacity="0.7" d="M401.433 237.843L351.759 209.257L298.57 211.366L230.619 250.73" stroke="#2A49F9" stroke-width="0.5349" stroke-miterlimit="10"/>
</g>
<path opacity="0.7" d="M260.853 245.107C262.259 244.169 264.602 244.169 266.008 245.107C267.414 246.044 267.414 247.216 266.008 248.153C264.602 249.09 262.259 249.09 260.853 248.153C259.447 247.216 259.447 245.81 260.853 245.107Z" fill="#002196"/>
<path opacity="0.7" d="M227.58 249.325C228.986 248.388 231.329 248.388 232.735 249.325C234.141 250.262 234.141 251.434 232.735 252.371C231.329 253.308 228.986 253.308 227.58 252.371C226.174 251.434 226.174 250.262 227.58 249.325Z" fill="#002196"/>
<path opacity="0.7" d="M295.765 209.96C297.171 209.023 299.514 209.023 300.92 209.96C302.326 210.897 302.326 212.069 300.92 213.006C299.514 213.943 297.171 213.943 295.765 213.006C294.359 212.069 294.359 210.897 295.765 209.96Z" fill="#002196"/>
<path opacity="0.7" d="M300.451 222.144C301.857 221.207 304.2 221.207 305.606 222.144C307.012 223.082 307.012 224.253 305.606 225.19C304.2 226.128 301.857 226.128 300.451 225.19C299.045 224.253 299.045 222.847 300.451 222.144Z" fill="#002196"/>
<path opacity="0.7" d="M397.218 249.558C398.624 248.621 400.967 248.621 402.373 249.558C403.779 250.496 403.779 251.667 402.373 252.604C400.967 253.542 398.624 253.542 397.218 252.604C395.813 251.667 395.813 250.496 397.218 249.558Z" fill="#002196"/>
<path opacity="0.7" d="M398.863 236.437C400.269 235.5 402.612 235.5 404.018 236.437C405.424 237.375 405.424 238.546 404.018 239.483C402.612 240.421 400.269 240.421 398.863 239.483C397.457 238.546 397.457 237.375 398.863 236.437Z" fill="#002196"/>
<path opacity="0.7" d="M524.687 206.68C526.093 205.742 528.436 205.742 529.842 206.68C531.248 207.617 531.248 208.788 529.842 209.726C528.436 210.663 526.093 210.663 524.687 209.726C523.281 208.788 523.281 207.617 524.687 206.68Z" fill="#002196"/>
</g>
<g opacity="0.7">
<g opacity="0.7">
<path opacity="0.7" d="M300.683 296.89L237.652 333.208L173.216 340.003L121.902 310.48L76.6791 312.354L37.3145 334.848" stroke="#2A49F9" stroke-width="0.5349" stroke-miterlimit="10"/>
</g>
<g opacity="0.7">
<path opacity="0.7" d="M175.098 326.648L125.423 297.827L72.234 299.936L4.04883 339.301" stroke="#2A49F9" stroke-width="0.5349" stroke-miterlimit="10"/>
</g>
<path opacity="0.7" d="M34.4997 333.677C35.9056 332.739 38.2487 332.739 39.6546 333.677C41.0605 334.614 41.0605 335.785 39.6546 336.723C38.2487 337.66 35.9056 337.66 34.4997 336.723C33.0938 335.785 33.0938 334.38 34.4997 333.677Z" fill="#002196"/>
<path opacity="0.7" d="M1.23014 338.129C2.63602 337.192 4.97916 337.192 6.38504 338.129C7.79092 339.066 7.79092 340.238 6.38504 341.175C4.97916 342.113 2.63602 342.113 1.23014 341.175C-0.410048 340.238 -0.410048 338.832 1.23014 338.129Z" fill="#002196"/>
<path opacity="0.7" d="M69.4177 298.764C70.8236 297.827 73.1667 297.827 74.5726 298.764C75.9785 299.702 75.9785 300.873 74.5726 301.811C73.1667 302.748 70.8236 302.748 69.4177 301.811C68.0118 300.873 68.0118 299.467 69.4177 298.764Z" fill="#002196"/>
<path opacity="0.7" d="M74.1052 310.714C75.5111 309.777 77.8542 309.777 79.2601 310.714C80.666 311.651 80.666 312.823 79.2601 313.76C77.8542 314.698 75.5111 314.698 74.1052 313.76C72.6993 312.823 72.6993 311.651 74.1052 310.714Z" fill="#002196"/>
<path opacity="0.7" d="M170.638 338.363C172.044 337.425 174.387 337.425 175.793 338.363C177.199 339.3 177.199 340.471 175.793 341.409C174.387 342.346 172.044 342.346 170.638 341.409C169.233 340.471 169.233 339.066 170.638 338.363Z" fill="#002196"/>
<path opacity="0.7" d="M172.513 325.007C173.919 324.07 176.262 324.07 177.668 325.007C179.074 325.944 179.074 327.116 177.668 328.053C176.262 328.99 173.919 328.99 172.513 328.053C171.108 327.35 171.108 325.944 172.513 325.007Z" fill="#002196"/>
<path opacity="0.7" d="M298.099 295.484C299.505 294.546 301.848 294.546 303.254 295.484C304.66 296.421 304.66 297.593 303.254 298.53C301.848 299.467 299.505 299.467 298.099 298.53C296.693 297.593 296.693 296.187 298.099 295.484Z" fill="#002196"/>
</g>
</g>
<path class="moving-y delay-5" d="M350.316 201.524C321.496 201.524 298.064 174.812 298.064 141.774C298.064 108.736 321.496 82.0244 350.316 82.0244C379.137 82.0244 402.568 108.736 402.568 141.774C402.568 174.812 379.137 201.524 350.316 201.524Z" fill="url(#paint7_linear)"/>
<path class="moving-y delay-5" d="M298.075 141.774C298.075 111.314 317.991 86.242 344 82.493C341.891 82.2587 339.783 82.0244 337.674 82.0244C308.853 82.0244 285.422 108.736 285.422 141.774C285.422 174.812 308.853 201.524 337.674 201.524C339.783 201.524 341.891 201.29 344 201.056C317.991 197.307 298.075 172.235 298.075 141.774Z" fill="url(#paint8_linear)"/>
<g opacity="0.5">
<path class="moving-y delay-5" opacity="0.5" d="M298.069 143.883H285.182C285.182 145.289 285.416 146.695 285.416 148.1H298.303C298.303 146.695 298.069 145.289 298.069 143.883Z" fill="url(#paint9_linear)"/>
<path class="moving-y delay-5" opacity="0.5" d="M298.538 133.339H285.65C285.416 134.745 285.416 136.151 285.182 137.557H298.069C298.303 136.151 298.303 134.745 298.538 133.339Z" fill="url(#paint10_linear)"/>
<path class="moving-y delay-5" opacity="0.5" d="M299.245 154.661H286.592C286.826 156.067 287.295 157.473 287.529 158.879H300.416C299.948 157.473 299.479 156.067 299.245 154.661Z" fill="url(#paint11_linear)"/>
<path class="moving-y delay-5" opacity="0.5" d="M302.29 165.205H289.402C289.871 166.611 290.574 168.017 291.277 169.423H304.164C303.461 168.017 302.758 166.611 302.29 165.205Z" fill="url(#paint12_linear)"/>
<path class="moving-y delay-5" opacity="0.5" d="M300.877 122.561H287.99C287.521 123.966 287.287 125.372 286.818 126.778H299.706C299.94 125.372 300.409 123.966 300.877 122.561Z" fill="url(#paint13_linear)"/>
<path class="moving-y delay-5" opacity="0.5" d="M305.098 112.016H292.21C291.507 113.422 290.805 114.828 290.336 116.234H303.223C303.692 114.828 304.395 113.422 305.098 112.016Z" fill="url(#paint14_linear)"/>
<path class="moving-y delay-5" opacity="0.5" d="M313.765 99.1289H300.878C299.706 100.535 298.535 101.941 297.363 103.347H310.251C311.422 101.941 312.594 100.535 313.765 99.1289Z" fill="url(#paint15_linear)"/>
<path class="moving-y delay-5" opacity="0.5" d="M326.888 88.585H314C311.891 89.7565 309.783 91.1624 307.674 92.8026H320.561C322.436 91.1624 324.544 89.7565 326.888 88.585Z" fill="url(#paint16_linear)"/>
<path class="moving-y delay-5" opacity="0.5" d="M308.848 178.093H295.961C296.898 179.499 298.07 180.905 299.007 182.31H311.894C310.723 180.905 309.785 179.499 308.848 178.093Z" fill="url(#paint17_linear)"/>
<path class="moving-y delay-5" opacity="0.5" d="M305.105 188.637C306.746 190.277 308.62 191.683 310.495 192.855H323.382C321.507 191.449 319.633 190.043 317.993 188.637H305.105Z" fill="url(#paint18_linear)"/>
</g>
<path class="moving-y delay-5" opacity="0.6" d="M352.432 189.34C375.726 189.34 394.609 168.044 394.609 141.774C394.609 115.504 375.726 94.2085 352.432 94.2085C329.139 94.2085 310.256 115.504 310.256 141.774C310.256 168.044 329.139 189.34 352.432 189.34Z" stroke="url(#paint19_linear)" stroke-width="1.0818" stroke-miterlimit="10"/>
<path class="moving-y delay-5" opacity="0.6" d="M352.668 185.122C373.761 185.122 390.861 165.82 390.861 142.009C390.861 118.198 373.761 98.895 352.668 98.895C331.574 98.895 314.475 118.198 314.475 142.009C314.475 165.82 331.574 185.122 352.668 185.122Z" stroke="url(#paint20_linear)" stroke-width="0.3152" stroke-miterlimit="10"/>
<path class="moving-y delay-5" d="M367.431 120.452V111.782H359.464V119.749H351.498V111.782H343.531V119.749H335.564V159.816H343.531V167.783H351.498V159.816H359.464V167.783H367.431V159.114C371.18 157.708 373.992 154.662 375.163 150.678C376.101 146.695 375.163 142.712 372.352 139.666C375.163 136.619 376.101 132.636 375.163 128.653C373.992 124.904 371.18 121.858 367.431 120.452ZM343.297 127.716H363.213C365.322 127.716 367.197 129.59 367.197 131.699C367.197 133.808 365.322 135.682 363.213 135.682H343.297V127.716ZM363.448 151.615H343.531V143.649H363.448C365.557 143.649 367.431 145.523 367.431 147.632C367.431 149.975 365.557 151.615 363.448 151.615Z" fill="white"/>
<path class="moving-y delay-7" d="M246.535 89.2878C238.802 95.8486 226.618 94.2084 219.12 85.5388C211.622 76.8692 211.622 64.4506 219.354 57.8899C227.087 51.3291 239.271 52.9693 246.769 61.6389C254.267 70.3085 254.267 82.7271 246.535 89.2878Z" fill="url(#paint21_linear)"/>
<path class="moving-y delay-7" d="M246.778 61.6387C253.808 69.6054 254.276 80.8524 248.184 87.8818C248.887 87.4132 249.356 86.9446 250.059 86.4759C257.791 79.9152 257.791 67.4966 250.293 58.827C242.795 50.1574 230.377 48.2829 222.878 55.078C222.41 55.5466 221.707 56.0152 221.238 56.7182C228.736 51.329 239.749 53.4378 246.778 61.6387Z" fill="url(#paint22_linear)"/>
<g opacity="0.5">
<path class="moving-y delay-7" opacity="0.5" d="M247.25 62.1077C247.484 62.5763 247.953 62.8106 248.187 63.2792L251.468 60.4675C251.233 59.9988 250.765 59.7645 250.53 59.2959L247.25 62.1077Z" fill="url(#paint23_linear)"/>
<path class="moving-y delay-7" opacity="0.5" d="M244.668 59.5305C245.137 59.7648 245.371 60.2334 245.84 60.4678L249.12 57.656C248.651 57.1874 248.417 56.9531 247.948 56.7188L244.668 59.5305Z" fill="url(#paint24_linear)"/>
<path class="moving-y delay-7" opacity="0.5" d="M249.354 65.1536C249.588 65.6222 249.822 66.0908 250.056 66.5594L253.337 63.7477C253.103 63.2791 252.868 62.8104 252.634 62.3418L249.354 65.1536Z" fill="url(#paint25_linear)"/>
<path class="moving-y delay-7" opacity="0.5" d="M250.996 68.6687C251.23 69.1373 251.465 69.6059 251.465 70.3089L254.745 67.4971C254.511 67.0285 254.511 66.5599 254.276 65.8569L250.996 68.6687Z" fill="url(#paint26_linear)"/>
<path class="moving-y delay-7" opacity="0.5" d="M241.617 57.1868C242.086 57.4211 242.554 57.6554 242.789 58.124L246.069 55.3123C245.6 55.0779 245.132 54.6093 244.898 54.375L241.617 57.1868Z" fill="url(#paint27_linear)"/>
<path class="moving-y delay-7" opacity="0.5" d="M238.105 55.3127C238.574 55.5471 239.043 55.7814 239.511 56.0157L242.792 53.2039C242.323 52.9696 241.854 52.7353 241.386 52.501L238.105 55.3127Z" fill="url(#paint28_linear)"/>
<path class="moving-y delay-8" opacity="0.5" d="M232.951 53.9065C233.654 53.9065 234.123 54.1408 234.826 54.1408L238.106 51.329C237.403 51.0947 236.935 51.0947 236.232 51.0947L232.951 53.9065Z" fill="url(#paint29_linear)"/>
<path class="moving-y delay-7" opacity="0.5" d="M227.096 53.9064C228.033 53.6721 228.736 53.6721 229.673 53.6721L232.954 50.8604C232.016 50.8604 231.079 51.0947 230.376 51.0947L227.096 53.9064Z" fill="url(#paint30_linear)"/>
<path class="moving-y delay-7" opacity="0.5" d="M252.166 73.5886C252.166 74.2916 252.4 74.7602 252.4 75.4631L255.681 72.6514C255.681 71.9484 255.681 71.4798 255.446 70.7769L252.166 73.5886Z" fill="url(#paint31_linear)"/>
<path class="moving-y delay-7" opacity="0.5" d="M252.168 78.5095C252.168 79.2124 251.934 80.1497 251.699 80.8526L254.98 77.8065C255.214 77.1036 255.214 76.1663 255.448 75.4634L252.168 78.5095Z" fill="url(#paint32_linear)"/>
</g>
<path class="moving-y delay-7" d="M243.956 86.242C243.722 86.4763 243.253 86.4763 243.019 86.242C242.784 86.0077 242.784 85.539 243.019 85.0704C243.253 84.8361 243.722 84.3675 243.956 84.1332C244.19 83.8988 244.659 83.8988 244.893 84.1332C245.127 84.3675 245.127 84.8361 244.893 85.0704C244.659 85.539 244.424 85.7734 243.956 86.242ZM240.207 88.3508C239.973 88.5851 239.973 88.5851 240.207 88.3508C239.504 88.5851 239.035 88.8194 238.567 89.0537C238.098 89.0537 237.864 88.8194 237.629 88.5851C237.629 88.1165 237.864 87.8822 238.098 87.6479C238.567 87.6479 239.035 87.4135 239.504 87.1792C239.973 86.9449 240.207 87.1792 240.441 87.6479C240.441 87.8822 240.441 88.3508 240.207 88.3508ZM247.471 81.5557C247.236 81.79 247.002 81.79 246.768 81.79C246.299 81.5557 246.299 81.0871 246.299 80.8528C246.533 80.3842 246.533 79.9155 246.768 79.4469C246.768 78.9783 247.236 78.744 247.705 78.9783C248.173 78.9783 248.408 79.4469 248.173 79.9155C247.939 80.3841 247.939 80.8528 247.705 81.3214C247.471 81.3214 247.471 81.3214 247.471 81.5557ZM234.349 89.2881C234.115 89.5224 234.115 89.5224 233.88 89.5224C233.412 89.5224 232.943 89.5224 232.24 89.2881C231.772 89.2881 231.537 88.8194 231.537 88.3508C231.537 87.8822 232.006 87.6479 232.475 87.6479C232.943 87.6479 233.412 87.8822 233.88 87.8822C234.349 87.8822 234.583 88.3508 234.583 88.5851C234.583 88.8194 234.349 89.0537 234.349 89.2881ZM248.408 75.6979C248.173 75.6979 248.173 75.9322 247.939 75.9322C247.471 75.9322 247.236 75.6979 247.236 75.2293C247.236 74.7606 247.236 74.292 247.236 73.8234C247.236 73.3547 247.471 73.1204 247.939 72.8861C248.408 72.8861 248.642 73.1204 248.876 73.5891C248.876 74.0577 248.876 74.5263 248.876 75.2293C248.642 75.2293 248.642 75.4636 248.408 75.6979ZM228.725 87.6479C228.491 87.8822 228.257 87.8822 228.023 87.6479C227.554 87.4135 227.085 87.1792 226.617 86.9449C226.148 86.7106 226.148 86.242 226.382 86.0077C226.617 85.539 227.085 85.539 227.32 85.7734C227.788 86.0077 228.257 86.242 228.491 86.4763C228.96 86.7106 228.96 87.1792 228.725 87.4135C228.725 87.6479 228.725 87.6479 228.725 87.6479ZM247.236 69.8401C247.236 70.0744 247.002 70.0744 247.236 69.8401C246.533 70.0744 246.299 69.8401 246.065 69.6057C245.83 69.1371 245.596 68.6685 245.596 68.4342C245.362 67.9655 245.596 67.7312 245.83 67.4969C246.299 67.2626 246.533 67.4969 246.768 67.7312C247.002 68.1999 247.236 68.6685 247.471 69.1371C247.471 69.3714 247.471 69.6057 247.236 69.8401ZM223.805 84.3675C223.571 84.6018 223.102 84.6018 222.868 84.3675C222.633 84.1332 222.165 83.6645 221.93 83.1959C221.696 82.9616 221.696 82.493 221.93 82.2587C222.165 82.0243 222.633 82.0243 223.102 82.2587C223.336 82.493 223.805 82.9616 224.039 83.1959C224.274 83.4302 224.274 83.8989 223.805 84.3675C223.805 84.1332 223.805 84.3675 223.805 84.3675ZM244.19 64.9195C243.956 65.1538 243.487 65.1538 243.019 64.9195C242.784 64.6852 242.316 64.2165 242.081 63.9822C241.847 63.7479 241.847 63.2793 242.081 63.045C242.316 62.8107 242.784 62.8107 243.019 63.045C243.487 63.5136 243.722 63.7479 243.956 64.2165C244.424 64.2165 244.424 64.6852 244.19 64.9195ZM220.29 79.4469C220.29 79.4469 220.29 79.6812 220.29 79.4469C219.822 79.6812 219.353 79.6812 219.119 79.2126C218.884 78.744 218.65 78.2753 218.416 77.8067C218.181 77.3381 218.416 77.1038 218.884 76.8695C219.353 76.6351 219.587 76.8695 219.822 77.3381C220.056 77.8067 220.29 78.2753 220.29 78.744C220.759 78.9783 220.525 79.2126 220.29 79.4469ZM239.504 61.1705C239.27 61.4048 239.035 61.4048 238.567 61.1705C238.098 60.9361 237.629 60.7018 237.395 60.4675C236.926 60.2332 236.926 59.7646 237.161 59.5303C237.395 59.0616 237.864 59.0616 238.098 59.296C238.567 59.5303 239.035 59.7646 239.504 59.9989C239.738 60.2332 239.973 60.4675 239.504 61.1705C239.738 60.9361 239.738 61.1705 239.504 61.1705ZM218.65 73.8234C218.65 73.8234 218.416 74.0577 218.181 74.0577C217.713 74.0577 217.478 73.8234 217.244 73.3548C217.244 72.8861 217.244 72.4175 217.244 71.7146C217.244 71.2459 217.478 71.0116 217.947 71.0116C218.416 71.0116 218.65 71.2459 218.65 71.7146C218.65 72.1832 218.65 72.6518 218.65 73.1204C218.884 73.5891 218.884 73.8234 218.65 73.8234ZM234.115 59.0616C233.88 59.296 233.646 59.296 233.412 59.296C232.943 59.296 232.474 59.0616 232.006 59.0616C231.537 59.0616 231.303 58.593 231.303 58.3587C231.303 57.8901 231.772 57.6558 232.006 57.6558C232.474 57.6558 232.943 57.6558 233.646 57.8901C234.115 57.8901 234.349 58.3587 234.349 58.8273L234.115 59.0616ZM219.119 67.9655C218.884 68.1999 218.65 68.1999 218.416 68.1999C217.947 68.1999 217.713 67.7312 217.947 67.2626C218.181 66.794 218.181 66.3254 218.416 65.8567C218.65 65.3881 219.119 65.3881 219.353 65.3881C219.822 65.6224 219.822 66.091 219.822 66.3254C219.587 66.794 219.587 67.2626 219.353 67.7312L219.119 67.9655ZM228.257 59.296L228.023 59.5303C227.554 59.5303 227.085 59.7646 226.617 59.9989C226.148 60.2332 225.914 59.9989 225.679 59.5303C225.445 59.0616 225.679 58.8273 226.148 58.593C226.617 58.3587 227.085 58.3587 227.554 58.1244C228.023 58.1244 228.257 58.3587 228.491 58.593C228.491 58.8273 228.491 59.0616 228.257 59.296ZM221.93 62.8107C221.696 63.045 221.227 63.045 220.993 62.8107C220.759 62.5763 220.759 62.1077 220.993 61.8734C221.227 61.4048 221.696 61.1705 222.165 60.7018C222.399 60.4675 222.868 60.4675 223.102 60.7018C223.336 60.9361 223.336 61.4048 223.102 61.8734C222.633 62.1077 222.399 62.5763 221.93 62.8107Z" fill="url(#paint33_linear)"/>
<path class="moving-y delay-7" d="M231.767 64.6849L229.658 62.3418L227.55 64.2163L229.424 66.3251L227.315 68.1996L225.675 65.8565L223.566 67.731L225.441 69.8398L223.332 71.7143L232.47 82.2584L234.579 80.3839L236.454 82.4927L238.562 80.6182L236.688 78.5094L238.797 76.6349L240.671 78.7437L242.78 76.8692L240.671 74.5261C241.374 73.3545 241.374 71.7143 240.906 70.5428C240.203 69.3712 239.031 68.4339 237.625 68.1996C237.625 66.7937 236.922 65.3879 235.751 64.6849C234.579 64.2163 233.173 63.982 231.767 64.6849ZM227.081 71.9486L232.47 67.2624C232.939 66.7937 233.876 66.7937 234.345 67.4967C234.813 67.9653 234.813 68.9026 234.11 69.3712L228.721 74.0575L227.081 71.9486ZM237.859 73.8231L232.47 78.5094L230.596 76.4006L235.985 71.7143C236.454 71.2457 237.391 71.2457 237.859 71.9486C238.562 72.4173 238.562 73.3545 237.859 73.8231Z" fill="white"/>
<path class="moving-y delay-8" d="M414.998 61.6389C403.517 52.032 403.048 33.287 414.061 20.1654C425.074 7.04389 443.584 4.23213 455.066 13.839C466.547 23.4458 467.016 42.1909 456.003 55.3124C444.756 68.434 426.479 71.2457 414.998 61.6389Z" fill="url(#paint34_linear)"/>
<path class="moving-y delay-8" d="M455.763 55.3124C445.454 67.4967 429.052 70.7771 417.57 63.5134C418.273 64.4507 419.211 65.1536 419.913 65.8565C431.395 75.4634 449.906 72.6516 460.918 59.5301C471.931 46.4085 471.697 27.6635 459.981 18.0566C459.044 17.3537 458.107 16.6508 457.169 16.1821C466.542 26.2576 466.073 42.8938 455.763 55.3124Z" fill="url(#paint35_linear)"/>
<g opacity="0.5">
<path class="moving-y delay-8" opacity="0.5" d="M455.084 56.0151C454.615 56.4838 454.146 57.1867 453.443 57.6553L458.598 61.873C459.067 61.4043 459.536 60.7014 460.238 60.2328L455.084 56.0151Z" fill="url(#paint36_linear)"/>
<path class="moving-y delay-8" opacity="0.5" d="M458.595 51.563C458.127 52.2659 457.658 52.7346 457.424 53.4375L462.579 57.6551C463.047 56.9522 463.516 56.4836 463.75 55.7806L458.595 51.563Z" fill="url(#paint37_linear)"/>
<path class="moving-y delay-8" opacity="0.5" d="M451.093 59.998C450.39 60.4667 449.922 60.9353 449.219 61.4039L454.374 65.6216C455.077 65.1529 455.545 64.6843 456.248 64.2157L451.093 59.998Z" fill="url(#paint38_linear)"/>
<path class="moving-y delay-8" opacity="0.5" d="M446.408 63.2788C445.705 63.7474 445.002 63.9817 444.299 64.4504L449.454 68.668C450.157 68.4337 450.86 67.9651 451.563 67.4964L446.408 63.2788Z" fill="url(#paint39_linear)"/>
<path class="moving-y delay-8" opacity="0.5" d="M461.179 46.6426C460.945 47.3455 460.477 48.0485 460.242 48.7514L465.397 52.969C465.866 52.2661 466.1 51.5632 466.334 50.8602L461.179 46.6426Z" fill="url(#paint40_linear)"/>
<path class="moving-y delay-8" opacity="0.5" d="M463.041 41.019C462.807 41.722 462.572 42.6592 462.338 43.3622L467.493 47.5798C467.727 46.8769 467.961 45.9396 468.196 45.2367L463.041 41.019Z" fill="url(#paint41_linear)"/>
<path class="moving-y delay-8" opacity="0.5" d="M463.992 32.8184C463.992 33.7556 463.992 34.6929 463.992 35.6301L469.147 39.8478C469.147 38.9105 469.147 37.9733 469.147 37.036L463.992 32.8184Z" fill="url(#paint42_linear)"/>
<path class="moving-y delay-8" opacity="0.5" d="M462.338 24.1484C462.807 25.32 463.041 26.7259 463.509 27.8975L468.664 32.1151C468.43 30.7092 467.961 29.5376 467.493 28.3661L462.338 24.1484Z" fill="url(#paint43_linear)"/>
<path class="moving-y delay-8" opacity="0.5" d="M439.38 66.0903C438.443 66.3246 437.506 66.559 436.568 66.7933L441.723 71.0109C442.66 70.7766 443.598 70.5423 444.301 70.308L439.38 66.0903Z" fill="url(#paint44_linear)"/>
<path class="moving-y delay-8" opacity="0.5" d="M432.116 67.2622C430.945 67.2622 429.773 67.2622 428.602 67.2622L433.756 71.4798C434.928 71.4798 436.1 71.7142 437.271 71.4798L432.116 67.2622Z" fill="url(#paint45_linear)"/>
</g>
<path class="moving-y delay-8" d="M418.744 56.7183C418.276 56.2496 418.276 55.5467 418.744 55.0781C419.213 54.6094 419.916 54.6094 420.384 55.0781C420.853 55.5467 421.556 56.0153 422.025 56.2496C422.493 56.7183 422.727 57.1869 422.259 57.8898C422.025 58.3584 421.322 58.5928 420.619 58.1241C420.15 57.8898 419.447 57.4212 418.744 56.7183ZM414.527 51.7977L414.292 51.5634C413.824 50.8604 413.589 50.1575 413.355 49.4545C413.121 48.9859 413.355 48.283 414.058 48.0487C414.527 47.8144 415.229 48.0487 415.464 48.7516C415.698 49.4545 415.932 49.9232 416.401 50.6261C416.635 51.0947 416.401 51.7977 415.932 52.032C415.464 52.032 414.995 52.032 414.527 51.7977ZM426.711 60.7016C426.477 60.4673 426.242 59.9986 426.242 59.53C426.477 58.8271 426.945 58.5928 427.648 58.5928C428.351 58.8271 429.054 58.8271 429.757 59.0614C430.46 59.0614 430.694 59.7643 430.694 60.233C430.694 60.9359 429.991 61.1702 429.523 61.1702C428.82 61.1702 427.882 60.9359 427.179 60.7016C426.945 60.9359 426.711 60.9359 426.711 60.7016ZM411.949 43.3624C411.715 43.1281 411.48 42.8938 411.48 42.6595C411.48 41.9565 411.48 41.0193 411.48 40.3163C411.48 39.6134 411.949 39.1448 412.652 39.1448C413.355 39.1448 413.824 39.6134 413.824 40.3163C413.824 41.0193 413.824 41.7222 413.824 42.4251C413.824 43.1281 413.355 43.5967 412.886 43.5967C412.652 43.5967 412.183 43.5967 411.949 43.3624ZM435.38 60.9359C435.146 60.7016 435.146 60.4673 434.912 60.233C434.912 59.53 435.146 59.0614 435.849 58.8271C436.552 58.5928 437.255 58.5928 437.958 58.3584C438.661 58.1241 439.129 58.5928 439.364 59.0614C439.598 59.7643 439.129 60.233 438.661 60.4673C437.958 60.7016 437.255 60.9359 436.318 60.9359C436.083 61.1702 435.615 61.1702 435.38 60.9359ZM412.886 34.6928C412.652 34.4585 412.418 33.9899 412.418 33.5212C412.652 32.8183 412.886 32.1154 413.121 31.4124C413.355 30.9438 414.058 30.4752 414.527 30.7095C414.995 30.9438 415.464 31.6467 415.229 32.1154C414.995 32.8183 414.761 33.5212 414.527 34.2242C414.292 34.9271 413.824 35.1614 413.121 34.9271C413.355 34.6928 413.121 34.6928 412.886 34.6928ZM443.581 57.6555L443.347 57.4212C443.113 56.9526 443.113 56.2496 443.816 55.781C444.519 55.3124 444.987 55.0781 445.69 54.6094C446.159 54.1408 446.862 54.3751 447.33 54.8437C447.799 55.3124 447.565 56.0153 447.096 56.4839C446.393 56.9526 445.925 57.4212 445.222 57.6555C444.519 58.1241 444.05 58.1241 443.581 57.6555ZM416.87 26.7262C416.401 26.2575 416.401 25.7889 416.635 25.3203C417.104 24.6173 417.573 24.1487 418.041 23.6801C418.51 23.2115 419.213 23.2115 419.681 23.6801C420.15 24.1487 420.15 24.8517 419.681 25.3203C419.213 25.7889 418.744 26.4918 418.51 26.9605C418.041 26.9605 417.338 27.1948 416.87 26.7262ZM450.376 52.032C449.908 51.5634 449.908 50.8604 450.142 50.3918C450.611 49.9232 451.079 49.2202 451.314 48.7516C451.782 48.283 452.485 48.0487 452.954 48.5173C453.423 48.9859 453.657 49.4545 453.188 50.1575C452.72 50.8604 452.251 51.3291 451.782 52.032C451.548 52.2663 450.845 52.5006 450.376 52.032ZM422.962 20.3997C422.493 19.6968 422.493 18.9938 422.962 18.7595C423.665 18.2909 424.133 17.8223 424.836 17.5879C425.305 17.3536 426.008 17.3536 426.477 18.0566C426.711 18.5252 426.711 19.2281 426.008 19.6968C425.305 20.1654 424.836 20.3997 424.133 20.8683C424.133 20.8683 423.43 20.8683 422.962 20.3997ZM454.828 44.534C454.36 44.2997 454.36 43.831 454.594 43.3624C454.828 42.6595 455.063 41.9565 455.297 41.2536C455.531 40.5506 456 40.3163 456.703 40.5506C457.406 40.785 457.64 41.2536 457.406 41.9565C457.172 42.6595 456.937 43.3624 456.703 44.0653C456.469 44.534 455.766 45.0026 455.297 44.7683C455.063 44.534 454.828 44.534 454.828 44.534ZM430.928 16.6507C430.694 16.4164 430.694 16.4164 430.46 16.1821C430.226 15.4791 430.694 15.0105 431.163 14.7762C431.866 14.5419 432.569 14.3076 433.506 14.3076C434.209 14.3076 434.677 14.5419 434.912 15.2448C434.912 15.9477 434.677 16.4164 433.975 16.6507C433.272 16.885 432.569 16.885 431.866 17.1193C431.631 16.885 431.163 16.885 430.928 16.6507ZM456.469 35.8644C456.234 35.6301 456 35.3957 456 34.9271C456 34.2242 456 33.5212 456 32.8183C456 32.1154 456.469 31.6467 456.937 31.6467C457.64 31.6467 458.109 32.1154 458.109 32.584C458.109 33.2869 458.109 34.2242 458.109 34.9271C458.109 35.6301 457.64 36.0987 456.937 36.0987C456.937 36.0987 456.703 36.0987 456.469 35.8644ZM439.832 15.9477C439.598 15.7134 439.364 15.2448 439.364 15.0105C439.364 14.3076 440.067 14.0732 440.535 14.0732C441.238 14.0732 442.175 14.3076 442.878 14.5419C443.581 14.7762 443.816 15.2448 443.816 15.9477C443.581 16.6507 443.113 16.885 442.41 16.885C441.707 16.6507 441.004 16.6507 440.301 16.4164C440.067 16.1821 439.832 15.9477 439.832 15.9477ZM454.828 27.1948C454.594 27.1948 454.594 26.9605 454.594 26.7262C454.36 26.0232 454.125 25.5546 453.657 24.8517C453.423 24.383 453.657 23.6801 454.125 23.4458C454.594 23.2115 455.297 23.2115 455.531 23.9144C456 24.6173 456.234 25.3203 456.469 26.0232C456.703 26.4918 456.469 27.1948 455.766 27.4291C455.531 27.6634 455.297 27.4291 454.828 27.1948ZM448.033 18.7595C447.565 18.2909 447.565 17.8223 447.799 17.3536C448.033 16.885 448.736 16.6507 449.439 17.1193C450.142 17.5879 450.611 18.0566 451.314 18.5252C451.782 18.9938 451.782 19.6968 451.548 20.1654C451.079 20.634 450.376 20.634 449.908 20.3997C449.205 19.6968 448.502 19.2281 448.033 18.7595C448.033 18.9938 448.033 18.9938 448.033 18.7595Z" fill="url(#paint46_linear)"/>
<path class="moving-y delay-8" d="M447.814 33.9906L450.86 30.4759L447.579 27.8984L445.002 31.1788L441.721 28.6014L444.299 25.321L441.253 22.2749L438.675 25.5553L435.395 22.9778L422.039 38.9111L425.319 41.4886L422.742 44.769L426.022 47.3464L428.6 44.066L431.88 46.6435L429.303 49.9239L432.583 52.5013L435.629 48.9866C437.504 49.6896 439.847 49.4552 441.487 48.2837C443.127 47.1121 444.064 45.0033 444.064 42.8945C446.173 42.6602 448.048 41.2543 448.751 39.3798C448.985 37.9739 448.985 35.6308 447.814 33.9906ZM435.864 28.6014L443.83 35.3964C444.767 36.0994 444.767 37.5053 444.064 38.4425C443.362 39.3798 441.956 39.3798 441.018 38.6768L433.052 31.8817L435.864 28.6014ZM435.629 45.0033L427.663 38.2082L430.24 34.9278L438.207 41.7229C439.144 42.4258 439.144 43.8317 438.441 44.769C437.972 45.7062 436.566 45.7062 435.629 45.0033Z" fill="white"/>
<path class="moving-y delay-1" d="M333.704 495.353L160.078 395.301C152.345 390.849 152.111 367.418 155.391 359.451L318.239 275.099C327.143 269.944 340.967 269.241 348.7 273.927L526.309 364.372C532.87 374.682 529.121 399.05 520.217 404.205L364.399 494.182C355.26 499.336 341.436 499.805 333.704 495.353Z" fill="url(#paint47_linear)"/>
<path class="moving-y delay-1" d="M333.704 469.579L160.078 369.527C152.346 365.075 153.283 357.108 162.187 351.953L318.005 261.977C326.909 256.822 340.734 256.119 348.466 260.806L522.092 360.857C529.825 365.309 528.887 373.276 519.983 378.431L364.165 468.407C355.261 473.328 341.437 474.031 333.704 469.579Z" fill="url(#paint48_linear)"/>
<path class="moving-y delay-1" d="M333.462 457.863L179.986 369.527C172.254 365.075 173.191 357.108 182.095 351.953L318.231 273.459C327.135 268.304 340.96 267.601 348.692 272.287L502.167 360.623C509.899 365.075 508.962 373.042 500.058 378.197L363.922 456.691C355.018 461.846 341.194 462.315 333.462 457.863Z" fill="url(#paint49_linear)"/>
<path class="moving-y delay-2" d="M334.864 424.825L204.586 349.844C198.728 346.564 198.728 338.363 201.071 332.505L323.149 269.241C329.944 265.257 340.019 265.023 345.877 268.303L478.967 336.02C483.887 343.752 481.076 352.422 474.281 356.405L357.358 423.887C351.032 427.871 340.722 428.105 334.864 424.825Z" fill="url(#paint50_linear)"/>
<path class="moving-y delay-2" d="M334.859 414.983L204.581 340.003C198.723 336.723 199.426 330.63 206.221 326.881L323.143 259.399C329.938 255.416 340.014 255.182 345.872 258.462L476.15 333.442C482.008 336.723 481.305 342.815 474.51 346.564L357.587 414.046C351.026 418.029 340.717 418.498 334.859 414.983Z" fill="url(#paint51_linear)"/>
<path class="moving-y delay-2" d="M334.632 406.314L219.585 340.238C213.727 336.957 214.43 330.865 221.225 327.116L323.151 268.304C329.946 264.32 340.022 264.086 345.879 267.366L460.927 333.443C466.785 336.723 466.082 342.815 459.287 346.564L357.361 405.377C350.8 409.36 340.49 409.829 334.632 406.314Z" fill="url(#paint52_linear)"/>
<path class="moving-y delay-3" d="M334.652 385.929L212.574 315.635C207.185 312.589 206.951 305.091 209.294 299.467L323.639 240.186C329.965 236.437 339.572 236.203 344.961 239.249L469.616 302.748C474.302 310.011 471.725 318.212 465.398 321.727L355.974 384.992C349.648 388.506 340.041 388.975 334.652 385.929Z" fill="url(#paint53_linear)"/>
<path class="moving-y delay-3" d="M334.655 376.791L212.578 306.497C207.189 303.451 207.892 297.827 214.218 294.078L323.643 230.814C329.969 227.065 339.576 226.83 344.965 229.876L467.042 300.17C472.432 303.216 471.729 308.84 465.402 312.589L355.978 375.853C349.651 379.368 340.045 379.837 334.655 376.791Z" fill="url(#paint54_linear)"/>
<path class="moving-y delay-3" d="M334.421 368.59L226.637 306.731C221.247 303.685 221.95 298.062 228.277 294.313L323.877 239.249C330.203 235.5 339.81 235.266 345.199 238.312L452.983 300.171C458.372 303.217 457.67 308.84 451.343 312.589L355.743 367.653C349.417 371.402 339.81 371.636 334.421 368.59Z" fill="url(#paint55_linear)"/>
<path class="moving-y delay-4" d="M334.87 350.547L220.291 284.705C215.136 281.659 215.136 274.629 217.01 269.475L324.56 213.474C330.418 209.959 339.556 209.725 344.711 212.536L461.868 272.286C466.085 279.081 463.742 286.814 457.884 290.094L355.021 349.375C349.163 353.124 340.025 353.359 334.87 350.547Z" fill="url(#paint56_linear)"/>
<path class="moving-y delay-4" d="M334.872 341.877L220.293 276.035C215.138 272.989 215.841 267.834 221.699 264.554L324.562 205.273C330.42 201.758 339.558 201.524 344.713 204.335L459.292 270.177C464.447 273.223 463.744 278.378 457.886 281.659L355.023 340.94C349.165 344.455 340.027 344.923 334.872 341.877Z" fill="url(#paint57_linear)"/>
<path class="moving-y delay-4" d="M334.868 334.144L233.644 276.035C228.489 272.989 229.192 267.834 235.05 264.553L324.792 212.77C330.65 209.255 339.788 209.021 344.943 211.833L446.166 269.943C451.321 272.989 450.618 278.144 444.761 281.424L355.019 333.207C348.926 336.722 339.788 337.19 334.868 334.144Z" fill="url(#paint58_linear)"/>
<path class="moving-y delay-5" d="M338.619 310.714L271.606 272.286C268.56 270.646 268.56 256.119 269.731 253.073L332.527 220.503C336.042 218.394 341.197 218.394 344.243 220.034L412.662 254.947C415.24 258.93 413.834 273.692 410.319 275.801L350.335 310.479C346.82 312.354 341.431 312.588 338.619 310.714Z" fill="url(#paint59_linear)"/>
<path class="moving-y delay-5" d="M338.617 295.484L271.604 257.056C268.558 255.416 269.026 252.37 272.541 250.261L332.525 215.583C336.04 213.474 341.195 213.474 344.241 215.114L411.255 253.541C414.301 255.182 413.832 258.228 410.317 260.337L350.333 295.015C346.818 296.889 341.429 297.124 338.617 295.484Z" fill="url(#paint60_linear)"/>
<path class="moving-y delay-5" d="M338.379 291.031L279.332 257.056C276.286 255.416 276.755 252.37 280.27 250.261L332.756 220.034C336.27 217.926 341.425 217.926 344.471 219.566L403.518 253.541C406.564 255.181 406.096 258.227 402.581 260.336L350.095 290.563C346.58 292.437 341.425 292.671 338.379 291.031Z" fill="#C6F8FF"/>
<path class=" moving-y delay-6" opacity="0.8" d="M138.52 67.2625L270.204 252.37L336.749 290.797C341.435 293.609 347.293 293.609 351.979 290.797L418.524 252.37L542.71 71.7145C542.71 71.7145 429.302 -4.90598 342.372 0.248914C251.224 6.10675 138.52 67.2625 138.52 67.2625Z" fill="url(#paint61_linear)"/>
<g opacity="0.5">
<path class="moving-y" opacity="0.5" d="M433.289 145.992H432.82C432.586 145.992 432.586 145.758 432.586 145.758V145.289C432.586 145.055 432.82 145.055 432.82 145.055H433.289C433.523 145.055 433.523 145.289 433.523 145.289V145.758C433.757 145.992 433.523 145.992 433.289 145.992Z" fill="white"/>
<path class="moving-y delay-1" opacity="0.5" d="M428.129 218.864H427.66C427.426 218.864 427.426 218.629 427.426 218.629V218.161C427.426 217.926 427.66 217.926 427.66 217.926H428.129C428.363 217.926 428.363 218.161 428.363 218.161V218.629C428.363 218.864 428.363 218.864 428.129 218.864Z" fill="white"/>
<path opacity="0.5" d="M394.861 203.164H394.393C394.158 203.164 394.158 202.93 394.158 202.93V202.461C394.158 202.227 394.393 202.227 394.393 202.227H394.861C395.095 202.227 395.095 202.461 395.095 202.461V202.93L394.861 203.164Z" fill="white"/>
<path opacity="0.5" d="M372.367 208.32H371.898C371.664 208.32 371.664 208.085 371.664 208.085V207.617C371.664 207.382 371.898 207.382 371.898 207.382H372.367C372.601 207.382 372.601 207.617 372.601 207.617V208.085C372.601 208.085 372.601 208.32 372.367 208.32Z" fill="white"/>
<path opacity="0.5" d="M360.875 185.123L360.406 184.888C360.172 184.888 360.172 184.654 360.172 184.42L360.406 183.951C360.406 183.717 360.641 183.717 360.875 183.717L361.343 183.951C361.578 183.951 361.578 184.185 361.578 184.42L361.343 184.888C361.109 185.123 360.875 185.357 360.875 185.123Z" fill="white"/>
<path opacity="0.5" d="M343.078 229.407L342.609 229.173C342.375 229.173 342.375 228.939 342.375 228.704L342.609 228.236C342.609 228.001 342.844 228.001 343.078 228.001L343.547 228.236C343.781 228.236 343.781 228.47 343.781 228.704L343.547 229.173C343.547 229.407 343.312 229.407 343.078 229.407Z" fill="white"/>
<path opacity="0.5" d="M316.133 165.909L315.664 165.674C315.43 165.674 315.43 165.44 315.43 165.206L315.664 164.737C315.664 164.503 315.898 164.503 316.133 164.503L316.601 164.737C316.836 164.737 316.836 164.972 316.836 165.206L316.601 165.674C316.367 165.909 316.133 165.909 316.133 165.909Z" fill="white"/>
<path opacity="0.5" d="M270.908 185.825L270.439 185.591C270.205 185.591 270.205 185.357 270.205 185.122L270.439 184.654C270.439 184.419 270.674 184.419 270.908 184.419L271.377 184.654C271.611 184.654 271.611 184.888 271.611 185.122L271.377 185.591C271.142 185.825 271.142 185.825 270.908 185.825Z" fill="white"/>
<path opacity="0.5" d="M293.168 252.136L292.699 251.902C292.465 251.902 292.465 251.667 292.465 251.433L292.699 250.964C292.699 250.73 292.933 250.73 293.168 250.73L293.636 250.964C293.871 250.964 293.871 251.199 293.871 251.433L293.636 251.902C293.402 252.136 293.168 252.136 293.168 252.136Z" fill="white"/>
<path opacity="0.5" d="M301.597 206.913L301.129 206.679C300.895 206.679 300.895 206.445 300.895 206.21L301.129 205.742C301.129 205.507 301.363 205.507 301.597 205.507L302.066 205.742C302.3 205.742 302.3 205.976 302.3 206.21L302.066 206.679C301.832 206.913 301.597 206.913 301.597 206.913Z" fill="white"/>
<path opacity="0.5" d="M270.908 152.318L270.439 152.084C270.205 152.084 270.205 151.85 270.205 151.616L270.439 151.147C270.439 150.913 270.674 150.913 270.908 150.913L271.377 151.147C271.611 151.147 271.611 151.381 271.611 151.616L271.377 152.084C271.142 152.318 271.142 152.318 270.908 152.318Z" fill="white"/>
<path opacity="0.5" d="M235.056 196.369L234.588 196.135C234.354 196.135 234.354 195.901 234.354 195.666L234.588 195.198C234.588 194.963 234.822 194.963 235.056 194.963L235.525 195.198C235.759 195.198 235.759 195.432 235.759 195.666L235.525 196.135C235.291 196.369 235.291 196.369 235.056 196.369Z" fill="white"/>
<path opacity="0.5" d="M235.056 162.862L234.588 162.628C234.354 162.628 234.354 162.394 234.354 162.159L234.588 161.691C234.588 161.457 234.822 161.457 235.056 161.457L235.525 161.691C235.759 161.691 235.759 161.925 235.759 162.159L235.525 162.628C235.291 162.862 235.291 162.862 235.056 162.862Z" fill="white"/>
<path opacity="0.5" d="M455.779 185.123L455.31 184.888C455.076 184.888 455.076 184.654 455.076 184.42L455.31 183.951C455.31 183.717 455.545 183.717 455.779 183.717L456.248 183.951C456.482 183.951 456.482 184.185 456.482 184.42L456.248 184.888C456.013 185.123 455.779 185.357 455.779 185.123Z" fill="white"/>
<path opacity="0.5" d="M458.584 162.862L458.115 162.628C457.881 162.628 457.881 162.394 457.881 162.159L458.115 161.691C458.115 161.457 458.349 161.457 458.584 161.457L459.052 161.691C459.287 161.691 459.287 161.925 459.287 162.159L459.052 162.628C458.818 162.862 458.818 162.862 458.584 162.862Z" fill="white"/>
<path opacity="0.5" d="M414.543 194.495L414.074 194.26C413.84 194.26 413.84 194.026 413.84 193.792L414.074 193.323C414.074 193.089 414.308 193.089 414.543 193.089L415.011 193.323C415.246 193.323 415.246 193.557 415.246 193.792L415.011 194.26C415.011 194.495 414.777 194.495 414.543 194.495Z" fill="white"/>
<path opacity="0.5" d="M396.027 155.599L395.559 155.364C395.324 155.364 395.324 155.13 395.324 154.896L395.559 154.427C395.559 154.193 395.793 154.193 396.027 154.193L396.496 154.427C396.73 154.427 396.73 154.662 396.73 154.896L396.496 155.364C396.496 155.599 396.261 155.599 396.027 155.599Z" fill="white"/>
<path opacity="0.5" d="M347.283 269.24H346.814C346.58 269.24 346.58 269.006 346.58 269.006V268.538C346.58 268.303 346.814 268.303 346.814 268.303H347.283C347.517 268.303 347.517 268.538 347.517 268.538V269.006C347.517 269.24 347.283 269.24 347.283 269.24Z" fill="white"/>
<path opacity="0.5" d="M403.058 232.922L402.59 232.688C402.355 232.688 402.355 232.454 402.355 232.22L402.59 231.751C402.59 231.517 402.824 231.517 403.058 231.517L403.527 231.751C403.761 231.751 403.761 231.985 403.761 232.22L403.527 232.688C403.527 232.922 403.293 232.922 403.058 232.922Z" fill="white"/>
<path opacity="0.5" d="M272.084 214.88L271.615 214.646C271.381 214.646 271.381 214.411 271.381 214.177L271.615 213.708C271.615 213.474 271.849 213.474 272.084 213.474L272.552 213.708C272.787 213.708 272.787 213.943 272.787 214.177L272.552 214.646C272.318 214.88 272.084 214.88 272.084 214.88Z" fill="white"/>
<path opacity="0.5" d="M368.849 255.416L368.381 255.182C368.146 255.182 368.146 254.947 368.146 254.713L368.381 254.245C368.381 254.01 368.615 254.01 368.849 254.01L369.318 254.245C369.552 254.245 369.552 254.479 369.552 254.713L369.318 255.182C369.084 255.416 368.849 255.416 368.849 255.416Z" fill="white"/>
<path opacity="0.5" d="M380.092 170.829L379.623 170.594C379.389 170.594 379.389 170.36 379.389 170.126L379.623 169.657C379.623 169.423 379.857 169.423 380.092 169.423L380.56 169.657C380.795 169.657 380.795 169.891 380.795 170.126L380.56 170.594C380.56 170.829 380.326 170.829 380.092 170.829Z" fill="white"/>
</g>
<g opacity="0.5">
<path opacity="0.5" d="M369.314 24.8518H368.846C368.611 24.8518 368.611 24.6175 368.611 24.6175V24.1489C368.611 23.9145 368.846 23.9146 368.846 23.9146H369.314C369.549 23.9146 369.549 24.1489 369.549 24.1489V24.6175C369.549 24.8518 369.549 24.8518 369.314 24.8518Z" fill="white"/>
<path opacity="0.5" d="M363.93 97.7234H363.461C363.227 97.7234 363.227 97.4891 363.227 97.4891V97.0204C363.227 96.7861 363.461 96.7861 363.461 96.7861H363.93C364.164 96.7861 364.164 97.0204 364.164 97.0204V97.4891C364.398 97.7234 364.164 97.7234 363.93 97.7234Z" fill="white"/>
<path opacity="0.5" d="M332.765 61.1702H332.297C332.063 61.1702 332.062 60.9358 332.062 60.9358V60.4672C332.062 60.2329 332.297 60.2329 332.297 60.2329H332.765C333 60.2329 333 60.4672 333 60.4672V60.9358C333 60.9358 333 61.1702 332.765 61.1702Z" fill="white"/>
<path opacity="0.5" d="M308.164 87.1789H307.695C307.461 87.1789 307.461 86.9446 307.461 86.9446V86.476C307.461 86.2417 307.695 86.2417 307.695 86.2417H308.164C308.398 86.2417 308.398 86.476 308.398 86.476V86.9446C308.633 86.9446 308.398 87.1789 308.164 87.1789Z" fill="white"/>
<path opacity="0.5" d="M287.535 41.7223L287.066 41.488C286.832 41.488 286.832 41.2537 286.832 41.0193L287.066 40.5507C287.066 40.3164 287.301 40.3164 287.535 40.3164L288.004 40.5507C288.238 40.5507 288.238 40.785 288.238 41.0193L288.004 41.488C288.004 41.7223 287.769 41.7223 287.535 41.7223Z" fill="white"/>
<path opacity="0.5" d="M279.101 108.033L278.633 107.799C278.398 107.799 278.398 107.564 278.398 107.33L278.633 106.861C278.633 106.627 278.867 106.627 279.101 106.627L279.57 106.861C279.804 106.861 279.804 107.096 279.804 107.33L279.57 107.799C279.336 108.033 279.101 108.267 279.101 108.033Z" fill="white"/>
<path opacity="0.5" d="M251.922 44.5343L251.453 44.3C251.219 44.3 251.219 44.0657 251.219 43.8314L251.453 43.3627C251.453 43.1284 251.687 43.1284 251.922 43.1284L252.39 43.3627C252.625 43.3627 252.625 43.597 252.625 43.8314L252.39 44.3C252.39 44.5343 252.156 44.7686 251.922 44.5343Z" fill="white"/>
<path opacity="0.5" d="M228.963 130.761L228.494 130.527C228.26 130.527 228.26 130.293 228.26 130.058L228.494 129.59C228.494 129.355 228.728 129.355 228.963 129.355L229.431 129.59C229.666 129.59 229.666 129.824 229.666 130.058L229.431 130.527C229.197 130.761 229.197 130.996 228.963 130.761Z" fill="white"/>
<path opacity="0.5" d="M237.404 85.7731L236.935 85.5388C236.701 85.5388 236.701 85.3044 236.701 85.0701L236.935 84.6015C236.935 84.3672 237.17 84.3672 237.404 84.3672L237.873 84.6015C238.107 84.6015 238.107 84.8358 238.107 85.0701L237.873 85.5388C237.638 85.7731 237.638 85.7731 237.404 85.7731Z" fill="white"/>
<path opacity="0.5" d="M391.568 63.9825L391.1 63.7482C390.865 63.7482 390.865 63.5139 390.865 63.2796L391.1 62.811C391.1 62.5767 391.334 62.5767 391.568 62.5767L392.037 62.811C392.271 62.811 392.271 63.0453 392.271 63.2796L392.037 63.7482C391.802 63.9825 391.802 64.2169 391.568 63.9825Z" fill="white"/>
<path opacity="0.5" d="M411.726 108.97L411.258 108.736C411.023 108.736 411.023 108.502 411.023 108.267L411.258 107.799C411.258 107.564 411.492 107.564 411.726 107.564L412.195 107.799C412.429 107.799 412.429 108.033 412.429 108.267L412.195 108.736C411.961 108.97 411.726 109.205 411.726 108.97Z" fill="white"/>
<path opacity="0.5" d="M458.828 104.987L458.359 104.753C458.125 104.753 458.125 104.518 458.125 104.284L458.359 103.815C458.359 103.581 458.594 103.581 458.828 103.581L459.297 103.815C459.531 103.815 459.531 104.05 459.531 104.284L459.297 104.753C459.062 104.987 458.828 104.987 458.828 104.987Z" fill="white"/>
<path opacity="0.5" d="M489.754 90.9279L489.285 90.6935C489.051 90.6935 489.051 90.4592 489.051 90.2249L489.285 89.7563C489.285 89.522 489.519 89.522 489.754 89.522L490.222 89.7563C490.457 89.7563 490.457 89.9906 490.457 90.2249L490.222 90.6935C490.222 90.9279 489.988 90.9279 489.754 90.9279Z" fill="white"/>
<path opacity="0.5" d="M283.094 148.1H282.625C282.391 148.1 282.391 147.866 282.391 147.866V147.397C282.391 147.163 282.625 147.163 282.625 147.163H283.094C283.328 147.163 283.328 147.397 283.328 147.397V147.866C283.328 147.866 283.328 148.1 283.094 148.1Z" fill="white"/>
<path opacity="0.5" d="M339.088 111.782L338.619 111.548C338.385 111.548 338.385 111.313 338.385 111.079L338.619 110.61C338.619 110.376 338.853 110.376 339.088 110.376L339.556 110.61C339.791 110.61 339.791 110.845 339.791 111.079L339.556 111.548C339.322 111.782 339.088 111.782 339.088 111.782Z" fill="white"/>
<path opacity="0.5" d="M207.873 93.7399L207.404 93.5056C207.17 93.5056 207.17 93.2712 207.17 93.0369L207.404 92.5683C207.404 92.334 207.639 92.334 207.873 92.334L208.341 92.5683C208.576 92.5683 208.576 92.8026 208.576 93.0369L208.341 93.5056C208.107 93.7399 208.107 93.7399 207.873 93.7399Z" fill="white"/>
<path opacity="0.5" d="M304.652 134.276L304.184 134.042C303.949 134.042 303.949 133.807 303.949 133.573L304.184 133.104C304.184 132.87 304.418 132.87 304.652 132.87L305.121 133.104C305.355 133.104 305.355 133.339 305.355 133.573L305.121 134.042C304.886 134.276 304.652 134.276 304.652 134.276Z" fill="white"/>
<path opacity="0.5" d="M359.937 52.9694L359.469 52.735C359.234 52.735 359.234 52.5007 359.234 52.2664L359.469 51.7978C359.469 51.5635 359.703 51.5635 359.937 51.5635L360.406 51.7978C360.64 51.7978 360.64 52.0321 360.64 52.2664L360.406 52.735C360.406 52.9694 360.172 53.2037 359.937 52.9694Z" fill="white"/>
</g>
<path class="moving-y" opacity="0.15" d="M133.59 201.056L16.4336 268.772V162.394L133.59 94.9116V201.056Z" fill="url(#paint62_linear)"/>
<g opacity="0.2">
<path opacity="0.2" d="M21.832 204.804L126.57 144.352" stroke="#E2F4FF" stroke-width="0.1353" stroke-miterlimit="10"/>
<path opacity="0.2" d="M21.832 181.608L126.57 121.155" stroke="#E2F4FF" stroke-width="0.1353" stroke-miterlimit="10"/>
<path opacity="0.2" d="M21.832 228.001L126.57 167.548" stroke="#E2F4FF" stroke-width="0.1353" stroke-miterlimit="10"/>
<path opacity="0.2" d="M21.832 251.198L126.57 190.746" stroke="#E2F4FF" stroke-width="0.1353" stroke-miterlimit="10"/>
</g>
<path class="moving-y" d="M115.307 197.072L119.056 194.963V128.652L115.307 130.761V197.072Z" fill="url(#paint63_linear)"/>
<path class="moving-y" d="M104.535 203.398L108.05 201.29V154.896L104.535 157.004V203.398Z" fill="url(#paint64_linear)"/>
<path class="moving-y" d="M93.5234 209.725L97.2725 207.616V131.933L93.5234 134.041V209.725Z" fill="url(#paint65_linear)"/>
<path class="moving-y" d="M82.7461 216.051L86.2608 213.942V187.699L82.7461 189.808V216.051Z" fill="url(#paint66_linear)"/>
<path class="moving-y" d="M71.7285 222.378L75.2432 220.269V180.67L71.7285 182.779V222.378Z" fill="url(#paint67_linear)"/>
<path class="moving-y" d="M60.7168 228.705L64.4658 226.596V163.565L60.7168 165.674V228.705Z" fill="url(#paint68_linear)"/>
<path class="moving-y" d="M49.9473 234.796L53.462 232.922V202.93L49.9473 205.039V234.796Z" fill="url(#paint69_linear)"/>
<path class="moving-y" d="M38.9277 241.123L42.4424 239.249V206.679L38.9277 208.788V241.123Z" fill="url(#paint70_linear)"/>
<path class="moving-y" d="M28.1484 247.449L31.6631 245.34V201.758L28.1484 203.632V247.449Z" fill="url(#paint71_linear)"/>
<path class="moving-y" opacity="0.15" d="M548.088 204.571L665.479 272.053V165.909L548.088 98.1924V204.571Z" fill="url(#paint72_linear)"/>
<g opacity="0.2">
<path opacity="0.2" d="M659.844 208.086L555.34 147.867" stroke="#E2F4FF" stroke-width="0.1353" stroke-miterlimit="10"/>
<path opacity="0.2" d="M659.844 185.123L555.34 124.67" stroke="#E2F4FF" stroke-width="0.1353" stroke-miterlimit="10"/>
<path opacity="0.2" d="M659.844 231.282L555.34 170.83" stroke="#E2F4FF" stroke-width="0.1353" stroke-miterlimit="10"/>
<path opacity="0.2" d="M659.844 254.48L555.34 194.027" stroke="#E2F4FF" stroke-width="0.1353" stroke-miterlimit="10"/>
</g>
<path class="moving-y" opacity="0.6" d="M567.301 144.586C572.456 147.633 574.096 175.75 580.657 179.499C587.218 183.248 584.406 156.068 589.561 159.348C595.887 163.332 592.607 198.479 601.276 203.633C609.946 208.788 612.758 161.223 621.896 166.143C631.269 171.064 628.691 204.336 635.252 208.085C642.047 211.834 641.578 201.525 646.265 204.102C650.482 206.445 654.7 223.784 656.106 231.985L655.403 253.308L553.242 194.261L555.82 175.281C559.569 157.942 563.318 142.243 567.301 144.586Z" fill="url(#paint73_linear)"/>
<defs>
<linearGradient id="paint0_linear" x1="58.3145" y1="407.927" x2="628.517" y2="407.927" gradientUnits="userSpaceOnUse">
<stop stop-color="#00B2FF"/>
<stop offset="1" stop-color="#00FFC2"/>
</linearGradient>
<linearGradient id="paint1_linear" x1="58.3145" y1="407.927" x2="628.517" y2="407.927" gradientUnits="userSpaceOnUse">
<stop stop-color="#00B2FF"/>
<stop offset="1" stop-color="#00FFC2"/>
</linearGradient>
<linearGradient id="paint2_linear" x1="58.3145" y1="407.927" x2="628.517" y2="407.927" gradientUnits="userSpaceOnUse">
<stop stop-color="#00B2FF"/>
<stop offset="1" stop-color="#00FFC2"/>
</linearGradient>
<linearGradient id="paint3_linear" x1="58.3145" y1="407.927" x2="628.517" y2="407.927" gradientUnits="userSpaceOnUse">
<stop stop-color="#00B2FF"/>
<stop offset="1" stop-color="#00FFC2"/>
</linearGradient>
<linearGradient id="paint4_linear" x1="58.3145" y1="407.927" x2="628.517" y2="407.927" gradientUnits="userSpaceOnUse">
<stop stop-color="#00B2FF"/>
<stop offset="1" stop-color="#00FFC2"/>
</linearGradient>
<linearGradient id="paint5_linear" x1="58.3145" y1="407.927" x2="628.517" y2="407.927" gradientUnits="userSpaceOnUse">
<stop stop-color="#00B2FF"/>
<stop offset="1" stop-color="#00FFC2"/>
</linearGradient>
<linearGradient id="paint6_linear" x1="58.3145" y1="407.927" x2="628.517" y2="407.927" gradientUnits="userSpaceOnUse">
<stop stop-color="#00B2FF"/>
<stop offset="1" stop-color="#00FFC2"/>
</linearGradient>
<linearGradient id="paint7_linear" x1="335.407" y1="97.7759" x2="368.082" y2="194.378" gradientUnits="userSpaceOnUse">
<stop stop-color="#84E4A4"/>
<stop offset="1" stop-color="#68B69D"/>
</linearGradient>
<linearGradient id="paint8_linear" x1="341.559" y1="138.25" x2="278.697" y2="170.569" gradientUnits="userSpaceOnUse">
<stop offset="0.0873016" stop-color="#84E4A4"/>
<stop offset="0.9709" stop-color="#3C53D7"/>
</linearGradient>
<linearGradient id="paint9_linear" x1="285.311" y1="146.063" x2="298.357" y2="146.063" gradientUnits="userSpaceOnUse">
<stop stop-color="#70C5A3"/>
<stop offset="0.4947" stop-color="#0A11AB"/>
<stop offset="1"/>
</linearGradient>
<linearGradient id="paint10_linear" x1="285.407" y1="135.409" x2="298.579" y2="135.409" gradientUnits="userSpaceOnUse">
<stop stop-color="#70C5A3"/>
<stop offset="0.4947" stop-color="#0A11AB"/>
<stop offset="1"/>
</linearGradient>
<linearGradient id="paint11_linear" x1="286.481" y1="156.718" x2="300.226" y2="156.718" gradientUnits="userSpaceOnUse">
<stop stop-color="#70C5A3"/>
<stop offset="0.4947" stop-color="#0A11AB"/>
<stop offset="1"/>
</linearGradient>
<linearGradient id="paint12_linear" x1="289.455" y1="167.372" x2="304.028" y2="167.372" gradientUnits="userSpaceOnUse">
<stop stop-color="#70C5A3"/>
<stop offset="0.4947" stop-color="#0A11AB"/>
<stop offset="1"/>
</linearGradient>
<linearGradient id="paint13_linear" x1="286.904" y1="124.754" x2="300.804" y2="124.754" gradientUnits="userSpaceOnUse">
<stop stop-color="#70C5A3"/>
<stop offset="0.4947" stop-color="#0A11AB"/>
<stop offset="1"/>
</linearGradient>
<linearGradient id="paint14_linear" x1="290.293" y1="114.102" x2="305.05" y2="114.102" gradientUnits="userSpaceOnUse">
<stop stop-color="#70C5A3"/>
<stop offset="0.4947" stop-color="#0A11AB"/>
<stop offset="1"/>
</linearGradient>
<linearGradient id="paint15_linear" x1="297.487" y1="101.316" x2="313.744" y2="101.316" gradientUnits="userSpaceOnUse">
<stop stop-color="#70C5A3"/>
<stop offset="0.4947" stop-color="#0A11AB"/>
<stop offset="1"/>
</linearGradient>
<linearGradient id="paint16_linear" x1="307.701" y1="90.6596" x2="326.773" y2="90.6596" gradientUnits="userSpaceOnUse">
<stop stop-color="#70C5A3"/>
<stop offset="0.4947" stop-color="#0A11AB"/>
<stop offset="1"/>
</linearGradient>
<linearGradient id="paint17_linear" x1="296.001" y1="180.158" x2="311.94" y2="180.158" gradientUnits="userSpaceOnUse">
<stop stop-color="#70C5A3"/>
<stop offset="0.4947" stop-color="#0A11AB"/>
<stop offset="1"/>
</linearGradient>
<linearGradient id="paint18_linear" x1="305.206" y1="190.813" x2="323.403" y2="190.813" gradientUnits="userSpaceOnUse">
<stop stop-color="#70C5A3"/>
<stop offset="0.4947" stop-color="#0A11AB"/>
<stop offset="1"/>
</linearGradient>
<linearGradient id="paint19_linear" x1="376.921" y1="101.262" x2="327.721" y2="182.376" gradientUnits="userSpaceOnUse">
<stop stop-color="#70C5A3"/>
<stop offset="0.4947" stop-color="#0A11AB"/>
<stop offset="1" stop-color="#000067"/>
</linearGradient>
<linearGradient id="paint20_linear" x1="374.593" y1="105.802" x2="330.71" y2="178.151" gradientUnits="userSpaceOnUse">
<stop stop-color="#70C5A3"/>
<stop offset="0.4947" stop-color="#0A11AB"/>
<stop offset="1" stop-color="#000067"/>
</linearGradient>
<linearGradient id="paint21_linear" x1="226.875" y1="58.4394" x2="240.303" y2="91.4765" gradientUnits="userSpaceOnUse">
<stop stop-color="#84E4A4"/>
<stop offset="1" stop-color="#68B69D"/>
</linearGradient>
<linearGradient id="paint22_linear" x1="234.509" y1="70.5561" x2="258.534" y2="64.7444" gradientUnits="userSpaceOnUse">
<stop offset="0.0873016" stop-color="#84E4A4"/>
<stop offset="0.9709" stop-color="#3C53D7"/>
</linearGradient>
<linearGradient id="paint23_linear" x1="251.184" y1="59.7713" x2="247.731" y2="62.7526" gradientUnits="userSpaceOnUse">
<stop stop-color="#70C5A3"/>
<stop offset="0.4947" stop-color="#0A11AB"/>
<stop offset="1"/>
</linearGradient>
<linearGradient id="paint24_linear" x1="248.719" y1="56.9732" x2="245.233" y2="59.9833" gradientUnits="userSpaceOnUse">
<stop stop-color="#70C5A3"/>
<stop offset="0.4947" stop-color="#0A11AB"/>
<stop offset="1"/>
</linearGradient>
<linearGradient id="paint25_linear" x1="253.306" y1="62.8576" x2="249.668" y2="65.9986" gradientUnits="userSpaceOnUse">
<stop stop-color="#70C5A3"/>
<stop offset="0.4947" stop-color="#0A11AB"/>
<stop offset="1"/>
</linearGradient>
<linearGradient id="paint26_linear" x1="254.955" y1="66.3582" x2="251.098" y2="69.6886" gradientUnits="userSpaceOnUse">
<stop stop-color="#70C5A3"/>
<stop offset="0.4947" stop-color="#0A11AB"/>
<stop offset="1"/>
</linearGradient>
<linearGradient id="paint27_linear" x1="245.883" y1="54.4952" x2="242.203" y2="57.6717" gradientUnits="userSpaceOnUse">
<stop stop-color="#70C5A3"/>
<stop offset="0.4947" stop-color="#0A11AB"/>
<stop offset="1"/>
</linearGradient>
<linearGradient id="paint28_linear" x1="242.555" y1="52.45" x2="238.649" y2="55.8224" gradientUnits="userSpaceOnUse">
<stop stop-color="#70C5A3"/>
<stop offset="0.4947" stop-color="#0A11AB"/>
<stop offset="1"/>
</linearGradient>
<linearGradient id="paint29_linear" x1="237.729" y1="50.71" x2="233.426" y2="54.4252" gradientUnits="userSpaceOnUse">
<stop stop-color="#70C5A3"/>
<stop offset="0.4947" stop-color="#0A11AB"/>
<stop offset="1"/>
</linearGradient>
<linearGradient id="paint30_linear" x1="232.592" y1="50.2233" x2="227.544" y2="54.5817" gradientUnits="userSpaceOnUse">
<stop stop-color="#70C5A3"/>
<stop offset="0.4947" stop-color="#0A11AB"/>
<stop offset="1"/>
</linearGradient>
<linearGradient id="paint31_linear" x1="256.142" y1="71.2382" x2="251.923" y2="74.8809" gradientUnits="userSpaceOnUse">
<stop stop-color="#70C5A3"/>
<stop offset="0.4947" stop-color="#0A11AB"/>
<stop offset="1"/>
</linearGradient>
<linearGradient id="paint32_linear" x1="256.144" y1="76.1609" x2="251.328" y2="80.3195" gradientUnits="userSpaceOnUse">
<stop stop-color="#70C5A3"/>
<stop offset="0.4947" stop-color="#0A11AB"/>
<stop offset="1"/>
</linearGradient>
<linearGradient id="paint33_linear" x1="202.135" y1="63.4964" x2="269.569" y2="85.347" gradientUnits="userSpaceOnUse">
<stop offset="0.0873016" stop-color="#84E4A4"/>
<stop offset="0.9709" stop-color="#3C53D7"/>
</linearGradient>
<linearGradient id="paint34_linear" x1="455.745" y1="25.0347" x2="410.168" y2="52.7353" gradientUnits="userSpaceOnUse">
<stop stop-color="#84E4A4"/>
<stop offset="1" stop-color="#68B69D"/>
</linearGradient>
<linearGradient id="paint35_linear" x1="439.668" y1="39.1788" x2="453.975" y2="73.2668" gradientUnits="userSpaceOnUse">
<stop offset="0.0873016" stop-color="#84E4A4"/>
<stop offset="0.9709" stop-color="#3C53D7"/>
</linearGradient>
<linearGradient id="paint36_linear" x1="459.589" y1="61.2244" x2="454.364" y2="56.8368" gradientUnits="userSpaceOnUse">
<stop stop-color="#70C5A3"/>
<stop offset="0.4947" stop-color="#0A11AB"/>
<stop offset="1"/>
</linearGradient>
<linearGradient id="paint37_linear" x1="463.131" y1="56.9247" x2="457.856" y2="52.4948" gradientUnits="userSpaceOnUse">
<stop stop-color="#70C5A3"/>
<stop offset="0.4947" stop-color="#0A11AB"/>
<stop offset="1"/>
</linearGradient>
<linearGradient id="paint38_linear" x1="455.532" y1="65.0994" x2="450.027" y2="60.4766" gradientUnits="userSpaceOnUse">
<stop stop-color="#70C5A3"/>
<stop offset="0.4947" stop-color="#0A11AB"/>
<stop offset="1"/>
</linearGradient>
<linearGradient id="paint39_linear" x1="450.757" y1="68.3667" x2="444.921" y2="63.4652" gradientUnits="userSpaceOnUse">
<stop stop-color="#70C5A3"/>
<stop offset="0.4947" stop-color="#0A11AB"/>
<stop offset="1"/>
</linearGradient>
<linearGradient id="paint40_linear" x1="466.12" y1="52.1532" x2="460.553" y2="47.4779" gradientUnits="userSpaceOnUse">
<stop stop-color="#70C5A3"/>
<stop offset="0.4947" stop-color="#0A11AB"/>
<stop offset="1"/>
</linearGradient>
<linearGradient id="paint41_linear" x1="468.334" y1="46.7473" x2="462.424" y2="41.7842" gradientUnits="userSpaceOnUse">
<stop stop-color="#70C5A3"/>
<stop offset="0.4947" stop-color="#0A11AB"/>
<stop offset="1"/>
</linearGradient>
<linearGradient id="paint42_linear" x1="469.766" y1="39.2067" x2="463.255" y2="33.7387" gradientUnits="userSpaceOnUse">
<stop stop-color="#70C5A3"/>
<stop offset="0.4947" stop-color="#0A11AB"/>
<stop offset="1"/>
</linearGradient>
<linearGradient id="paint43_linear" x1="469.245" y1="31.5029" x2="461.607" y2="25.0882" gradientUnits="userSpaceOnUse">
<stop stop-color="#70C5A3"/>
<stop offset="0.4947" stop-color="#0A11AB"/>
<stop offset="1"/>
</linearGradient>
<linearGradient id="paint44_linear" x1="443.836" y1="71.2851" x2="437.452" y2="65.924" gradientUnits="userSpaceOnUse">
<stop stop-color="#70C5A3"/>
<stop offset="0.4947" stop-color="#0A11AB"/>
<stop offset="1"/>
</linearGradient>
<linearGradient id="paint45_linear" x1="436.568" y1="72.4588" x2="429.28" y2="66.3388" gradientUnits="userSpaceOnUse">
<stop stop-color="#70C5A3"/>
<stop offset="0.4947" stop-color="#0A11AB"/>
<stop offset="1"/>
</linearGradient>
<linearGradient id="paint46_linear" x1="442.38" y1="-10.2869" x2="426.192" y2="94.486" gradientUnits="userSpaceOnUse">
<stop offset="0.0873016" stop-color="#84E4A4"/>
<stop offset="0.9709" stop-color="#3C53D7"/>
</linearGradient>
<linearGradient id="paint47_linear" x1="549.074" y1="449.851" x2="183.84" y2="335.163" gradientUnits="userSpaceOnUse">
<stop stop-color="#000053"/>
<stop offset="0.5425" stop-color="#23007F"/>
<stop offset="1" stop-color="#4F34D7"/>
</linearGradient>
<linearGradient id="paint48_linear" x1="332.725" y1="279.653" x2="335.131" y2="499.854" gradientUnits="userSpaceOnUse">
<stop offset="0.0291005" stop-color="#6DC077"/>
<stop offset="0.9709" stop-color="#223DBA"/>
</linearGradient>
<linearGradient id="paint49_linear" x1="188.07" y1="281.655" x2="411.269" y2="403.4" gradientUnits="userSpaceOnUse">
<stop offset="0.0873016" stop-color="#84E4A4"/>
<stop offset="0.8175" stop-color="#3C53D7"/>
<stop offset="1" stop-color="#2B29C6"/>
</linearGradient>
<linearGradient id="paint50_linear" x1="379.89" y1="426.513" x2="328.706" y2="316.512" gradientUnits="userSpaceOnUse">
<stop stop-color="#000053"/>
<stop offset="0.5425" stop-color="#23007F"/>
<stop offset="1" stop-color="#4F34D7"/>
</linearGradient>
<linearGradient id="paint51_linear" x1="334.126" y1="272.739" x2="335.929" y2="437.81" gradientUnits="userSpaceOnUse">
<stop offset="0.0291005" stop-color="#6DC077"/>
<stop offset="0.9709" stop-color="#223DBA"/>
</linearGradient>
<linearGradient id="paint52_linear" x1="334.812" y1="279.653" x2="336.421" y2="426.912" gradientUnits="userSpaceOnUse">
<stop offset="0.0873016" stop-color="#84E4A4"/>
<stop offset="0.9709" stop-color="#3C53D7"/>
</linearGradient>
<linearGradient id="paint53_linear" x1="376.801" y1="387.434" x2="328.846" y2="284.374" gradientUnits="userSpaceOnUse">
<stop stop-color="#000053"/>
<stop offset="0.5425" stop-color="#23007F"/>
<stop offset="1" stop-color="#4F34D7"/>
</linearGradient>
<linearGradient id="paint54_linear" x1="333.933" y1="243.364" x2="335.622" y2="398.017" gradientUnits="userSpaceOnUse">
<stop offset="0.0291005" stop-color="#6DC077"/>
<stop offset="0.9709" stop-color="#223DBA"/>
</linearGradient>
<linearGradient id="paint55_linear" x1="334.569" y1="249.841" x2="336.076" y2="387.808" gradientUnits="userSpaceOnUse">
<stop offset="0.0873016" stop-color="#84E4A4"/>
<stop offset="0.9709" stop-color="#3C53D7"/>
</linearGradient>
<linearGradient id="paint56_linear" x1="368.153" y1="338.222" x2="323.118" y2="241.435" gradientUnits="userSpaceOnUse">
<stop stop-color="#000053"/>
<stop offset="0.5425" stop-color="#23007F"/>
<stop offset="1" stop-color="#4F34D7"/>
</linearGradient>
<linearGradient id="paint57_linear" x1="332.505" y1="198.514" x2="334.091" y2="343.754" gradientUnits="userSpaceOnUse">
<stop offset="0.0291005" stop-color="#6DC077"/>
<stop offset="0.9709" stop-color="#223DBA"/>
</linearGradient>
<linearGradient id="paint58_linear" x1="316.31" y1="231.011" x2="367.526" y2="322.581" gradientUnits="userSpaceOnUse">
<stop offset="0.0873016" stop-color="#84E4A4"/>
<stop offset="0.9709" stop-color="#3C53D7"/>
</linearGradient>
<linearGradient id="paint59_linear" x1="346.021" y1="272.332" x2="316.62" y2="209.145" gradientUnits="userSpaceOnUse">
<stop stop-color="#000053"/>
<stop offset="0.5425" stop-color="#23007F"/>
<stop offset="1" stop-color="#35498E"/>
</linearGradient>
<linearGradient id="paint60_linear" x1="338.143" y1="222.271" x2="339.069" y2="307.081" gradientUnits="userSpaceOnUse">
<stop stop-color="#62A4A1"/>
<stop offset="1" stop-color="#2F3C9E"/>
</linearGradient>
<linearGradient id="paint61_linear" x1="338.523" y1="17.6907" x2="348.333" y2="259.255" gradientUnits="userSpaceOnUse">
<stop stop-color="#F1EBF9" stop-opacity="0"/>
<stop offset="0.252" stop-color="#F2EEFA" stop-opacity="0"/>
<stop offset="0.2989" stop-color="#F3F0FA" stop-opacity="0"/>
<stop offset="0.4873" stop-color="#EDF9FD" stop-opacity="0.137"/>
<stop offset="0.5741" stop-color="#E9FFFF" stop-opacity="0.2"/>
<stop offset="1" stop-color="#E6FFFF"/>
</linearGradient>
<linearGradient id="paint62_linear" x1="37.6197" y1="146.07" x2="127.449" y2="197.753" gradientUnits="userSpaceOnUse">
<stop offset="0.0873016" stop-color="#84E4A4"/>
<stop offset="0.9709" stop-color="#3C53D7"/>
</linearGradient>
<linearGradient id="paint63_linear" x1="117.198" y1="197.649" x2="89.859" y2="150.299" gradientUnits="userSpaceOnUse">
<stop offset="0.0873016" stop-color="#84E4A4"/>
<stop offset="0.9709" stop-color="#3C53D7"/>
</linearGradient>
<linearGradient id="paint64_linear" x1="106.284" y1="203.954" x2="78.945" y2="156.604" gradientUnits="userSpaceOnUse">
<stop offset="0.0873016" stop-color="#84E4A4"/>
<stop offset="0.9709" stop-color="#3C53D7"/>
</linearGradient>
<linearGradient id="paint65_linear" x1="95.3633" y1="209.965" x2="73.0197" y2="171.266" gradientUnits="userSpaceOnUse">
<stop offset="0.0873016" stop-color="#84E4A4"/>
<stop offset="0.9709" stop-color="#3C53D7"/>
</linearGradient>
<linearGradient id="paint66_linear" x1="84.4432" y1="216.565" x2="57.1045" y2="169.214" gradientUnits="userSpaceOnUse">
<stop offset="0.0873016" stop-color="#84E4A4"/>
<stop offset="0.9709" stop-color="#3C53D7"/>
</linearGradient>
<linearGradient id="paint67_linear" x1="73.5173" y1="222.87" x2="46.1785" y2="175.52" gradientUnits="userSpaceOnUse">
<stop offset="0.0873016" stop-color="#84E4A4"/>
<stop offset="0.9709" stop-color="#3C53D7"/>
</linearGradient>
<linearGradient id="paint68_linear" x1="62.5972" y1="229.176" x2="35.2585" y2="181.825" gradientUnits="userSpaceOnUse">
<stop offset="0.0873016" stop-color="#84E4A4"/>
<stop offset="0.9709" stop-color="#3C53D7"/>
</linearGradient>
<linearGradient id="paint69_linear" x1="51.6849" y1="235.481" x2="24.3462" y2="188.13" gradientUnits="userSpaceOnUse">
<stop offset="0.0873016" stop-color="#84E4A4"/>
<stop offset="0.9709" stop-color="#3C53D7"/>
</linearGradient>
<linearGradient id="paint70_linear" x1="40.757" y1="241.787" x2="13.4183" y2="194.436" gradientUnits="userSpaceOnUse">
<stop offset="0.0873016" stop-color="#84E4A4"/>
<stop offset="0.9709" stop-color="#3C53D7"/>
</linearGradient>
<linearGradient id="paint71_linear" x1="29.835" y1="248.091" x2="2.49628" y2="200.74" gradientUnits="userSpaceOnUse">
<stop offset="0.0873016" stop-color="#84E4A4"/>
<stop offset="0.9709" stop-color="#3C53D7"/>
</linearGradient>
<linearGradient id="paint72_linear" x1="644.2" y1="149.457" x2="554.371" y2="201.14" gradientUnits="userSpaceOnUse">
<stop offset="0.0873016" stop-color="#84E4A4"/>
<stop offset="0.9709" stop-color="#3C53D7"/>
</linearGradient>
<linearGradient id="paint73_linear" x1="617.36" y1="187.602" x2="599.481" y2="215.998" gradientUnits="userSpaceOnUse">
<stop offset="0.0873016" stop-color="#84E4A4"/>
<stop offset="0.9709" stop-color="#3C53D7"/>
</linearGradient>
</defs>
</svg>
