
<svg id="cripto-price" width="406" height="499" viewBox="0 0 406 499" fill="none" xmlns="http://www.w3.org/2000/svg">
<path opacity="0.5792" d="M-5.43377e-06 371.099L42.2335 371.099L42.3664 371.232L44.3585 374.685L76.3657 429.668L78.0922 432.59L78.225 432.989L78.4907 433.254L78.225 433.52L78.0922 433.918L76.3657 436.84L44.3585 491.823L42.632 494.745L42.4992 495.011L42.2336 495.409L11.6518 495.409L11.6518 494.745L41.8351 494.745L43.6945 491.425L75.8345 436.442L77.4282 433.52L77.6938 433.254L77.4282 432.989L75.8345 430.067L43.6945 375.083L41.8351 371.763L-5.40474e-06 371.763L-5.43377e-06 371.099Z" fill="url(#paint0_radial)"/>
<path opacity="0.9861" d="M42.4999 495.023L42.3671 495.421L114.749 495.421L114.217 494.757L42.6328 494.757L42.4999 495.023ZM41.4375 495.421L39.8437 498.343C39.9766 498.476 40.2422 498.608 40.375 498.741L42.1015 495.819L42.2343 495.421L114.616 495.421L114.217 494.757L41.8359 494.757L41.4375 495.421Z" fill="url(#paint1_radial)"/>
<path opacity="0.9699" d="M-5.43377e-06 371.099L42.2335 371.099L42.3664 371.232L44.3585 374.685L76.3657 429.668L78.0922 432.59L78.225 432.989L78.4907 433.254L78.225 433.52L78.0922 433.918L76.3657 436.84L44.3585 491.823L42.632 494.745L42.4992 495.011L42.2336 495.409L11.6518 495.409L11.6518 494.745L41.8351 494.745L43.6945 491.425L75.8345 436.442L77.4282 433.52L77.6938 433.254L77.4282 432.989L75.8345 430.067L43.6945 375.083L41.8351 371.763L-5.40474e-06 371.763L-5.43377e-06 371.099Z" fill="url(#paint2_radial)"/>
<path opacity="0.9051" d="M329.502 495.409L330.298 495.409L330.696 494.746L329.9 494.746L329.502 495.409Z" fill="url(#paint3_radial)"/>
<path opacity="0.9574" d="M-9.63681e-07 422.24L4.38273 429.677L6.24207 432.864L6.37488 433.13L6.24207 433.529L4.38273 436.716L0 444.286L-5.80531e-08 442.958L3.71868 436.45L5.57802 433.263L3.71868 430.075L-9.05628e-07 423.568L-9.63681e-07 422.24Z" fill="url(#paint4_radial)"/>
<path opacity="0.9474" d="M78.2246 433.525L78.0918 433.923L79.6855 436.845L113.419 494.75L114.216 494.75L80.3496 436.579L78.623 433.657L78.4902 433.259L78.2246 433.525ZM132.013 339.894L131.614 340.558L114.083 370.838L113.95 371.104L113.685 371.502L79.6855 429.673L78.0918 432.595L77.959 432.993L77.8262 433.126L77.6934 433.259L77.959 433.657L78.0918 433.923L79.6855 436.845L113.419 494.75L113.818 495.414L114.615 495.414L114.216 494.75L80.3496 436.579L78.623 433.657L78.4902 433.259L78.623 432.993L80.3496 430.072L114.083 372.166L114.216 371.768L114.482 371.37L114.615 370.971L132.278 340.956L132.677 340.292L150.34 310.011L293.908 310.011L329.501 371.104L329.634 371.502L329.899 371.901L330.032 372.166L347.696 402.447L348.094 403.111L365.758 433.392L348.094 463.672L347.696 464.337L329.899 494.883L329.501 495.547L330.298 495.547L330.696 494.883L348.227 464.469L348.626 463.805L366.289 433.392L366.422 433.259L348.626 402.713L348.227 402.049L330.431 371.502L330.298 371.237L330.165 370.971L294.439 309.613L294.306 309.48L149.809 309.48L132.013 339.894Z" fill="url(#paint5_radial)"/>
<path opacity="0.8086" d="M129.756 281.995L113.686 309.62L131.748 340.564L131.881 340.963L168.27 340.963L186.2 310.018L186.465 309.62L186.2 309.221L170.263 281.862L168.138 278.277L131.881 278.277L129.756 281.995ZM167.872 279.073L169.731 282.261L185.403 309.221L185.669 309.62L185.403 310.018L167.739 340.299L132.279 340.299L132.146 340.033L114.482 309.753L130.42 282.394L132.279 279.206L167.872 279.206L167.872 279.073Z" fill="url(#paint6_radial)"/>
<path opacity="0.5531" d="M347.697 402.317L329.768 433.261L347.697 464.206L347.83 464.472L384.22 464.472L402.415 433.261L384.22 402.051L347.83 402.051L347.697 402.317ZM383.821 402.715L401.618 433.261L383.821 463.808L348.228 463.808L348.095 463.409L330.432 433.129L348.095 402.848L348.228 402.582L383.821 402.582L383.821 402.715Z" fill="url(#paint7_radial)"/>
<path opacity="0.9538" d="M-9.69486e-07 298.597L6.37488 309.62L0 320.776L-5.80531e-08 319.448L5.71083 309.62L-9.11433e-07 299.925L-9.69486e-07 298.597Z" fill="url(#paint8_radial)"/>
<path opacity="0.8754" d="M-5.43377e-06 123.948L42.2335 123.948L42.4992 124.213L44.3585 127.534L60.2957 154.892L60.5613 155.556L78.225 185.704L78.4907 186.103L78.225 186.368L60.5613 216.649L60.2957 217.313L42.2336 248.258L0 248.258L-2.90265e-08 247.594L41.8351 247.594L59.6317 216.915L60.0301 216.383L77.4282 186.368L77.6938 186.103L77.4282 185.704L60.0301 155.822L59.6317 155.158L43.6945 127.799L41.8351 124.612L-5.40474e-06 124.612L-5.43377e-06 123.948Z" fill="url(#paint9_radial)"/>
<path opacity="0.5051" d="M-5.43377e-06 371.099L42.2335 371.099L42.3664 371.232L44.3585 374.685L76.3657 429.668L78.0922 432.59L78.225 432.989L78.4907 433.254L78.225 433.52L78.0922 433.918L76.3657 436.84L44.3585 491.823L42.632 494.745L42.4992 495.011L42.2336 495.409L34.9555 495.409L34.9555 494.745L41.8351 494.745L43.6945 491.425L75.8345 436.442L77.4282 433.52L77.6938 433.254L77.4282 432.989L75.8345 430.067L43.6945 375.083L41.8351 371.763L-5.40474e-06 371.763L-5.43377e-06 371.099Z" fill="url(#paint10_radial)"/>
<path opacity="0.8517" d="M5.84363 185.696L150.208 185.696L150.341 185.962L150.606 186.36L157.38 197.915L159.106 200.837L159.372 201.501L161.364 204.821L184.34 244.265L186.199 247.586L186.332 247.718L188.324 251.039L220.332 306.155L222.058 309.077L222.191 309.342L222.457 309.608L222.191 310.006L222.058 310.272L220.332 313.194L211.965 327.537L188.324 368.177L186.465 371.497L186.199 371.763L186.067 372.161L184.34 375.083L152.333 430.066L150.606 432.988L150.208 433.52L5.84364 433.52L5.71083 433.387L5.71083 433.254L3.71868 430.066L-4.35398e-07 423.559L-4.93451e-07 422.231L4.38273 429.668L6.24207 432.988L149.81 432.988L150.075 432.59L151.802 429.668L183.809 374.685L185.535 371.763L185.934 371.099L187.793 367.911L216.48 318.506L219.8 312.928L221.527 310.006L221.66 309.608L221.527 309.342L219.8 306.42L215.285 298.717L187.793 251.437L185.801 248.25L185.535 247.586L183.809 244.664L160.7 205.086L158.841 201.899L158.442 201.235L156.716 198.313L150.075 186.759L149.81 186.36L6.24205 186.36L-1.03334e-05 197.118L-1.03915e-05 195.79L5.71082 186.095L5.84363 185.696Z" fill="url(#paint11_radial)"/>
<path opacity="0.61" d="M138.785 173.878L133.738 182.511L131.879 185.699L131.746 186.097L131.879 186.495L133.738 189.683L140.644 201.636L140.777 201.901L159.105 201.901L159.371 201.503L161.23 198.316L168.136 186.495L168.269 186.097L168.136 185.699L159.105 170.293L140.777 170.293L138.785 173.878ZM158.839 170.957L167.472 185.699L167.738 186.097L167.472 186.495L160.699 198.05L158.972 200.972L158.839 201.37L141.176 201.37L141.043 201.104L134.269 189.55L132.543 186.628L132.277 186.23L132.543 185.831L134.269 182.91L139.316 174.277L141.176 171.089L158.839 171.089L158.839 170.957Z" fill="url(#paint12_radial)"/>
<path opacity="0.6181" d="M78.2246 433.52L78.0918 433.918L79.6855 436.84L113.419 494.745L114.216 494.745L80.3496 436.574L78.623 433.653L78.4902 433.254L78.2246 433.52ZM186.199 371.763L185.801 371.763L185.933 372.162L187.66 375.083L219.667 430.067L221.394 432.989L221.527 433.254L221.659 432.989L221.925 432.59L220.198 429.668L188.191 374.685L186.332 371.498L186.199 371.763ZM78.2246 433.52L78.0918 433.918L79.6855 436.84L113.419 494.745L114.216 494.745L80.3496 436.574L78.623 433.653L78.4902 433.254L78.2246 433.52ZM186.199 371.763L185.801 371.763L185.933 372.162L187.66 375.083L219.667 430.067L221.394 432.989L221.527 433.254L221.659 432.989L221.925 432.59L220.198 429.668L188.191 374.685L186.332 371.498L186.199 371.763ZM78.2246 433.52L78.0918 433.918L79.6855 436.84L113.419 494.745L114.216 494.745L80.3496 436.574L78.623 433.653L78.4902 433.254L78.2246 433.52ZM113.685 371.498L79.6855 429.668L78.0918 432.59L77.959 432.989L77.8262 433.121L77.6934 433.254L77.959 433.653L78.0918 433.918L79.6855 436.84L113.419 494.745L113.818 495.409L186.199 495.409L220.331 436.84L222.058 433.918L222.191 433.653L222.456 433.254L222.323 432.989L222.191 432.59L220.464 429.668L188.457 374.685L186.597 371.498L186.465 371.365L186.332 371.232L113.818 371.232L113.685 371.498ZM185.801 371.763L185.933 372.162L187.66 375.083L219.667 430.067L221.394 432.989L221.527 433.254L221.394 433.653L219.667 436.574L185.801 494.745L114.216 494.745L80.3496 436.574L78.623 433.653L78.4902 433.254L78.623 432.989L80.3496 430.067L114.083 372.162L114.216 371.763L185.801 371.763ZM78.2246 433.52L78.0918 433.918L79.6855 436.84L113.419 494.745L114.216 494.745L80.3496 436.574L78.623 433.653L78.4902 433.254L78.2246 433.52ZM186.199 371.763L185.801 371.763L185.933 372.162L187.66 375.083L219.667 430.067L221.394 432.989L221.527 433.254L221.659 432.989L221.925 432.59L220.198 429.668L188.191 374.685L186.332 371.498L186.199 371.763ZM78.2246 433.52L78.0918 433.918L79.6855 436.84L113.419 494.745L114.216 494.745L80.3496 436.574L78.623 433.653L78.4902 433.254L78.2246 433.52ZM185.535 371.763L185.933 371.763L186.066 372.162L187.793 375.083L219.8 430.067L221.527 432.989L221.659 433.254L221.792 432.989L222.058 432.59L220.331 429.668L188.324 374.685L186.465 371.498L186.332 371.365L186.199 371.232L185.933 371.232L185.535 371.763Z" fill="url(#paint13_radial)"/>
<path opacity="0.876" d="M149.413 186.364L141.046 200.84L140.647 201.504L113.82 247.457L77.6953 309.479L77.5625 309.612L113.687 371.501L113.82 371.767L114.085 372.165L147.819 430.07L149.545 432.992L149.811 433.523L149.944 433.656L294.308 433.656L330.167 372.165L330.3 371.9L330.433 371.501L348.229 340.955L348.628 340.291L364.299 313.33L366.291 309.877L366.424 309.745L364.299 306.159L348.628 279.198L348.229 278.534L330.3 247.855L330.167 247.722L294.308 186.099L294.176 185.966L149.811 185.966L149.413 186.364ZM293.91 186.364L329.503 247.457L329.901 248.121L347.698 278.667L348.096 279.331L363.768 306.424L365.627 309.612L363.768 312.799L348.096 339.76L347.698 340.424L330.034 370.704L329.901 370.97L329.636 371.368L329.503 371.767L293.91 432.859L150.21 432.859L150.077 432.594L148.35 429.672L114.616 371.767L114.484 371.368L114.218 370.97L114.085 370.704L78.4922 309.612L114.351 248.121L114.749 247.457L141.311 201.77L141.71 201.106L150.077 186.63L150.21 186.231L293.91 186.231L293.91 186.364Z" fill="url(#paint14_radial)"/>
<path opacity="0.5845" d="M347.697 278.808L329.768 309.753L347.697 340.697L347.83 340.963L384.22 340.963L400.29 313.338L402.415 309.753L400.29 306.167L384.22 278.542L347.83 278.542L347.697 278.808ZM383.821 279.073L399.758 306.432L401.618 309.62L399.758 312.807L383.821 340.166L348.228 340.166L348.095 339.768L330.432 309.487L348.095 279.206L348.228 278.808L383.821 278.808L383.821 279.073Z" fill="url(#paint15_radial)"/>
<path opacity="0.5432" d="M255.792 374.685L223.785 429.668L222.059 432.59L222.191 432.989L222.324 433.254L222.457 432.989L224.184 430.067L256.324 374.951L258.183 371.763L257.784 371.763L257.652 371.498L255.792 374.685ZM257.652 371.498L255.792 374.685L223.785 429.668C224.051 429.801 224.184 429.801 224.316 429.934L256.324 374.951L258.183 371.763L329.767 371.763L329.502 371.365L329.369 370.966L257.784 370.966L257.652 371.498ZM257.652 371.498L255.792 374.685L223.785 429.668C224.051 429.801 224.184 429.801 224.316 429.934L256.324 374.951L258.183 371.763L329.767 371.763L329.502 371.365L329.369 370.966L257.784 370.966L257.652 371.498ZM257.652 371.498L255.792 374.685L223.785 429.668L222.059 432.59L221.793 432.989L221.66 433.254L221.926 433.653L222.059 433.918L223.785 436.84L257.784 495.409L330.166 495.409L330.564 494.745L348.228 464.464L348.626 463.8L366.29 433.387L366.423 433.254L348.626 402.708L348.228 402.044L330.431 371.498L330.299 371.232L257.917 371.232L257.652 371.498ZM348.095 402.973L365.759 433.254L348.095 463.535L347.697 464.199L329.9 494.745L258.316 494.745L224.449 436.574L222.723 433.653L222.457 433.254L222.59 432.989L224.316 430.067L256.324 374.951L258.183 371.763L329.767 371.763L329.9 372.029L347.564 402.309L348.095 402.973ZM257.652 371.498L255.792 374.685L223.785 429.668C224.051 429.801 224.184 429.801 224.316 429.934L256.324 374.951L258.183 371.763L329.767 371.763L329.502 371.365L329.369 370.966L257.784 370.966L257.652 371.498ZM257.652 371.498L255.792 374.685L223.785 429.668C224.051 429.801 224.184 429.801 224.316 429.934L256.324 374.951L258.183 371.763L329.767 371.763L329.502 371.365L329.369 370.966L257.784 370.966L257.652 371.498Z" fill="url(#paint16_radial)"/>
<path opacity="0.8471" d="M-5.43377e-06 0.307098L42.2335 0.307097L76.3657 58.8763L78.4907 62.4621L76.3657 66.048L44.3585 121.031L42.4992 124.219L42.2336 124.617L0 124.617L-2.90265e-08 123.953L41.8351 123.953L43.6945 120.766L75.8345 65.6496L77.6938 62.4621L75.8345 59.2747L41.8351 0.971151L-5.40474e-06 0.971153L-5.43377e-06 0.307098Z" fill="url(#paint17_radial)"/>
<path opacity="0.7774" d="M59.6305 155.156L41.834 185.703L41.7012 186.101L41.834 186.5L59.6305 217.046L59.7633 217.444L96.1532 217.444L112.223 189.82L114.083 186.632L114.348 186.234L114.083 185.836L112.223 182.648L96.1532 155.024L59.8961 155.024L59.6305 155.156ZM95.8876 155.555L111.825 182.914L113.551 185.836L113.684 186.234L113.551 186.632L111.825 189.554L95.8876 216.913L60.2946 216.913L60.1617 216.515L42.7637 186.632L42.498 186.234L42.7637 185.836L60.1617 155.953L60.2946 155.555L95.8876 155.555Z" fill="url(#paint18_radial)"/>
<path opacity="0.6187" d="M-9.69486e-07 174.94L6.24207 185.697L6.37488 186.096L6.24207 186.362L0 197.119L-5.80531e-08 195.791L5.71083 186.096L-9.11433e-07 176.268L-9.69486e-07 174.94Z" fill="url(#paint19_radial)"/>
<path opacity="0.6525" d="M-2.72849e-06 31.2414L24.3042 31.2414L26.2964 34.8273L42.4992 62.4518L26.2964 90.2091L24.3042 93.6621L0 93.6621L-2.90265e-08 92.9981L23.9058 92.9981L25.7651 89.8106L41.7023 62.4518L25.7651 35.093L23.9058 31.9055L-2.69947e-06 31.9055L-2.72849e-06 31.2414Z" fill="url(#paint20_radial)"/>
<path opacity="0.6134" d="M-5.43377e-06 0.307098L42.2335 0.307097L76.3657 58.8763L78.4907 62.4621L76.3657 66.048L44.3585 121.031L42.4992 124.219L42.2336 124.617L0 124.617L-2.90265e-08 123.953L41.8351 123.953L43.6945 120.766L75.8345 65.6496L77.6938 62.4621L75.8345 59.2747L41.8351 0.971151L-5.40474e-06 0.971153L-5.43377e-06 0.307098Z" fill="url(#paint21_radial)"/>
<path opacity="0.951" d="M216.48 318.515L187.66 367.92L185.801 371.107L186.199 371.107L186.332 371.24L186.465 371.373L188.324 368.186L211.964 327.546L220.331 313.202C220.066 313.069 219.933 313.069 219.8 312.937L216.48 318.515ZM221.527 310.015L219.8 312.937L216.613 318.515L187.793 367.92L185.933 371.107L186.332 371.107L186.465 371.24L186.597 371.373L188.457 368.186L212.097 327.546L220.464 313.202L222.191 310.28L222.058 310.015L221.792 309.616L221.527 310.015ZM221.527 310.015L219.8 312.937L216.613 318.515L187.793 367.92L185.933 371.107L186.332 371.107L186.465 371.24L186.597 371.373L188.457 368.186L212.097 327.546L220.464 313.202L222.191 310.28L222.058 310.015L221.792 309.616L221.527 310.015ZM77.8262 309.484L77.6934 309.616L113.685 371.506L113.818 371.771L186.199 371.771L186.465 371.373L188.324 368.186L211.964 327.546L220.331 313.202L222.058 310.28L222.191 310.015L222.456 309.616L222.191 309.218L222.058 308.952L220.331 306.031L188.324 251.047L186.332 247.594L186.199 247.461L113.818 247.461L77.8262 309.484ZM185.801 248.258L187.66 251.446L215.284 298.726L219.8 306.429L221.527 309.351L221.659 309.749L221.527 310.148L219.8 313.069L216.613 318.648L187.793 368.053L185.933 371.24L114.216 371.24L114.083 370.975L78.4902 309.882L114.349 248.391L185.801 248.391L185.801 248.258ZM221.527 310.015L219.8 312.937L216.613 318.515L187.793 367.92L185.933 371.107L186.332 371.107L186.465 371.24L186.597 371.373L188.457 368.186L212.097 327.546L220.464 313.202L222.191 310.28L222.058 310.015L221.792 309.616L221.527 310.015ZM187.793 367.92L185.933 371.107L187.793 367.92L216.613 318.515L187.793 367.92Z" fill="url(#paint22_radial)"/>
<path opacity="0.6699" d="M222.191 310.011L222.059 310.277L223.785 313.198L255.792 368.182C255.925 368.049 256.191 367.916 256.324 367.916L224.316 312.933L222.59 310.011L222.324 309.613L222.191 310.011ZM222.191 310.011L222.059 310.277L223.785 313.198L255.792 368.182L257.652 371.502L257.784 371.104L258.183 371.104L256.324 367.916L224.316 312.933L222.59 310.011L222.324 309.613L222.191 310.011ZM222.191 310.011L222.059 310.277L223.785 313.198L255.792 368.182L257.652 371.502L257.784 371.104L258.183 371.104L256.324 367.916L224.316 312.933L222.59 310.011L222.324 309.613L222.191 310.011ZM223.785 306.159L222.059 309.081L221.926 309.347L221.793 309.48L221.66 309.613L221.926 310.011L222.059 310.277L223.785 313.198L255.792 368.182L257.652 371.502L257.784 371.9L330.166 371.9L330.299 371.502L348.095 340.956L348.494 340.292L364.165 313.331L366.157 309.878L366.29 309.745L364.165 306.159L348.494 279.199L348.095 278.535L330.166 247.856L330.033 247.723L257.652 247.723L223.785 306.159ZM347.697 278.801L348.095 279.465L363.767 306.425L365.626 309.613L363.767 312.8L348.095 339.76L347.697 340.424L330.033 370.705L329.9 370.971L258.316 370.971L256.456 367.783L224.449 312.8L222.723 309.878L222.457 309.48L222.723 309.081L224.449 306.159L258.316 247.989L329.9 247.989L347.697 278.801ZM222.191 310.011L222.059 310.277L223.785 313.198L255.792 368.182L257.652 371.502L257.784 371.104L258.183 371.104L256.324 367.916L224.316 312.933L222.59 310.011L222.324 309.613L222.191 310.011ZM222.191 310.011L222.59 310.011L222.324 309.613L222.191 310.011Z" fill="url(#paint23_radial)"/>
<path opacity="0.9074" d="M42.1015 367.512C44.3593 367.512 46.0858 369.238 46.0858 371.496C46.0858 373.621 44.3593 375.48 42.1015 375.48C39.8437 375.48 38.1172 373.754 38.1172 371.496C38.1172 369.238 39.8437 367.512 42.1015 367.512Z" fill="url(#paint24_radial)"/>
<path opacity="0.6002" d="M78.0937 429.278C80.3514 429.278 82.078 431.005 82.078 433.263C82.078 435.388 80.3514 437.247 78.0937 437.247C75.8359 437.247 74.1094 435.521 74.1094 433.263C74.1094 431.138 75.8359 429.278 78.0937 429.278Z" fill="url(#paint25_radial)"/>
<path opacity="0.8428" d="M42.1015 491.164C42.7655 491.164 43.2968 491.297 43.828 491.563C43.9608 491.695 44.2264 491.828 44.3593 491.961C45.2889 492.625 45.953 493.688 46.0858 494.883C46.0858 495.016 46.0858 495.149 46.0858 495.281C46.0858 495.414 46.0858 495.547 46.0858 495.68C45.953 496.875 45.2889 497.938 44.3593 498.602C44.2264 498.734 43.9608 498.867 43.828 499C43.2968 498.867 42.6327 499 42.1015 499C41.5702 499 40.9062 498.867 40.375 498.602C40.1093 498.469 39.9765 498.469 39.8437 498.203C38.914 497.539 38.25 496.477 38.1172 495.281C38.1172 495.149 38.1172 495.016 38.1172 494.883C38.1172 494.75 38.1172 494.617 38.1172 494.484C38.25 492.758 39.9765 491.164 42.1015 491.164Z" fill="url(#paint26_radial)"/>
<path opacity="0.9917" d="M168.004 274.817C170.262 274.817 171.988 276.543 171.988 278.801C171.988 280.926 170.262 282.785 168.004 282.785C165.746 282.785 164.02 281.059 164.02 278.801C164.02 276.543 165.879 274.817 168.004 274.817Z" fill="url(#paint27_radial)"/>
<path opacity="0.9612" d="M132.014 274.817C134.271 274.817 135.998 276.543 135.998 278.801C135.998 280.926 134.271 282.785 132.014 282.785C129.756 282.785 128.029 281.059 128.029 278.801C128.029 276.543 129.889 274.817 132.014 274.817Z" fill="url(#paint28_radial)"/>
<path opacity="0.6836" d="M42.1015 120.359C44.3593 120.359 46.0858 122.085 46.0858 124.343C46.0858 126.468 44.3593 128.327 42.1015 128.327C39.8437 128.327 38.1172 126.601 38.1172 124.343C38.1172 122.085 39.8437 120.359 42.1015 120.359Z" fill="url(#paint29_radial)"/>
<path opacity="0.9087" d="M42.1015 491.164C42.7655 491.164 43.2968 491.297 43.828 491.563C43.9608 491.695 44.2264 491.828 44.3593 491.961C45.2889 492.625 45.953 493.688 46.0858 494.883C46.0858 495.016 46.0858 495.149 46.0858 495.281C46.0858 495.414 46.0858 495.547 46.0858 495.68C45.953 496.875 45.2889 497.938 44.3593 498.602C44.2264 498.734 43.9608 498.867 43.828 499C43.2968 498.867 42.6327 499 42.1015 499C41.5702 499 40.9062 498.867 40.375 498.602C40.1093 498.469 39.9765 498.469 39.8437 498.203C38.914 497.539 38.25 496.477 38.1172 495.281C38.1172 495.149 38.1172 495.016 38.1172 494.883C38.1172 494.75 38.1172 494.617 38.1172 494.484C38.25 492.758 39.9765 491.164 42.1015 491.164Z" fill="url(#paint30_radial)"/>
<path opacity="0.7254" d="M42.1015 367.512C44.3593 367.512 46.0858 369.238 46.0858 371.496C46.0858 373.621 44.3593 375.48 42.1015 375.48C39.8437 375.48 38.1172 373.754 38.1172 371.496C38.1172 369.238 39.8437 367.512 42.1015 367.512Z" fill="url(#paint31_radial)"/>
<path opacity="0.5217" d="M150.076 429.278C152.334 429.278 154.06 431.005 154.06 433.263C154.06 435.388 152.334 437.247 150.076 437.247C147.818 437.247 146.092 435.521 146.092 433.263C146.092 431.138 147.818 429.278 150.076 429.278Z" fill="url(#paint32_radial)"/>
<path opacity="0.758" d="M6.1093 429.278C8.36707 429.278 10.0936 431.005 10.0936 433.263C10.0936 435.388 8.36707 437.247 6.1093 437.247C3.85153 437.247 2.125 435.521 2.125 433.263C2.125 431.138 3.85153 429.278 6.1093 429.278Z" fill="url(#paint33_radial)"/>
<path opacity="0.5672" d="M159.105 197.519C161.363 197.519 163.09 199.245 163.09 201.503C163.09 203.628 161.363 205.487 159.105 205.487C156.848 205.487 155.121 203.761 155.121 201.503C155.121 199.378 156.848 197.519 159.105 197.519Z" fill="url(#paint34_radial)"/>
<path opacity="0.6639" d="M141.045 166.709C143.303 166.709 145.029 168.436 145.029 170.693C145.029 172.818 143.303 174.678 141.045 174.678C138.787 174.678 137.061 172.951 137.061 170.693C137.061 168.436 138.92 166.709 141.045 166.709Z" fill="url(#paint35_radial)"/>
<path opacity="0.7845" d="M132.014 182.111C134.271 182.111 135.998 183.838 135.998 186.096C135.998 188.221 134.271 190.08 132.014 190.08C129.756 190.08 128.029 188.354 128.029 186.096C128.029 183.838 129.889 182.111 132.014 182.111Z" fill="url(#paint36_radial)"/>
<path opacity="0.8686" d="M402.016 305.759C404.273 305.759 406 307.485 406 309.743C406 311.868 404.273 313.728 402.016 313.728C399.758 313.728 398.031 312.001 398.031 309.743C398.031 307.485 399.891 305.759 402.016 305.759Z" fill="url(#paint37_radial)"/>
<path opacity="0.9438" d="M258.049 367.517C260.307 367.517 262.033 369.243 262.033 371.501C262.033 373.626 260.307 375.485 258.049 375.485C255.791 375.485 254.064 373.759 254.064 371.501C254.064 369.243 255.791 367.517 258.049 367.517Z" fill="url(#paint38_radial)"/>
<path opacity="0.8488" d="M222.059 429.278C224.316 429.278 226.043 431.005 226.043 433.263C226.043 435.388 224.316 437.247 222.059 437.247C219.801 437.247 218.074 435.521 218.074 433.263C218.074 431.138 219.801 429.278 222.059 429.278Z" fill="url(#paint39_radial)"/>
<path opacity="0.5604" d="M42.1015 120.359C44.3593 120.359 46.0858 122.085 46.0858 124.343C46.0858 126.468 44.3593 128.327 42.1015 128.327C39.8437 128.327 38.1172 126.601 38.1172 124.343C38.1172 122.085 39.8437 120.359 42.1015 120.359Z" fill="url(#paint40_radial)"/>
<path opacity="0.8646" d="M78.0917 58.6007C80.3495 58.6007 82.076 60.3273 82.076 62.585C82.076 64.71 80.3495 66.5693 78.0917 66.5693C75.834 66.5693 74.1074 64.8428 74.1074 62.585C74.1074 60.3273 75.834 58.6007 78.0917 58.6007Z" fill="url(#paint41_radial)"/>
<path opacity="0.5312" d="M114.084 182.111C116.342 182.111 118.068 183.838 118.068 186.096C118.068 188.221 116.342 190.08 114.084 190.08C111.826 190.08 110.1 188.354 110.1 186.096C110.1 183.838 111.826 182.111 114.084 182.111Z" fill="url(#paint42_radial)"/>
<path opacity="0.7235" d="M24.039 89.4162C26.2968 89.4162 28.0233 91.1427 28.0233 93.4005C28.0233 95.5254 26.2968 97.3848 24.039 97.3848C21.7812 97.3848 20.0547 95.6582 20.0547 93.4005C20.0547 91.1427 21.914 89.4162 24.039 89.4162Z" fill="url(#paint43_radial)"/>
<path opacity="0.5885" d="M24.039 27.6584C26.2968 27.6584 28.0233 29.3849 28.0233 31.6427C28.0233 33.7676 26.2968 35.627 24.039 35.627C21.7812 35.627 20.0547 33.9004 20.0547 31.6427C20.0547 29.3849 21.914 27.6584 24.039 27.6584Z" fill="url(#paint44_radial)"/>
<path opacity="0.8858" d="M186.066 367.517C188.324 367.517 190.051 369.243 190.051 371.501C190.051 373.626 188.324 375.485 186.066 375.485C183.809 375.485 182.082 373.759 182.082 371.501C182.082 369.243 183.809 367.517 186.066 367.517Z" fill="url(#paint45_radial)"/>
<path opacity="0.5875" d="M186.066 243.874C188.324 243.874 190.051 245.601 190.051 247.858C190.051 250.116 188.324 251.843 186.066 251.843C183.809 251.843 182.082 250.116 182.082 247.858C182.082 245.601 183.809 243.874 186.066 243.874Z" fill="url(#paint46_radial)"/>
<path opacity="0.6677" d="M366.025 305.759C368.283 305.759 370.01 307.485 370.01 309.743C370.01 311.868 368.283 313.728 366.025 313.728C363.768 313.728 362.041 312.001 362.041 309.743C362.041 307.485 363.9 305.759 366.025 305.759Z" fill="url(#paint47_radial)"/>
<path opacity="0.779" d="M222.059 305.759C224.316 305.759 226.043 307.485 226.043 309.743C226.043 311.868 224.316 313.728 222.059 313.728C219.801 313.728 218.074 312.001 218.074 309.743C218.074 307.485 219.801 305.759 222.059 305.759Z" fill="url(#paint48_radial)"/>
<defs>
<radialGradient id="paint0_radial" cx="0" cy="0" r="1" gradientUnits="userSpaceOnUse" gradientTransform="translate(11.8371 368.427) rotate(90) scale(91.0092 95.544)">
<stop stop-color="#FF2C9C"/>
<stop offset="0.0300632" stop-color="#F62F9F"/>
<stop offset="0.2023" stop-color="#C63EB0"/>
<stop offset="0.3737" stop-color="#9E4BBE"/>
<stop offset="0.5413" stop-color="#7F54C9"/>
<stop offset="0.7039" stop-color="#695BD1"/>
<stop offset="0.8594" stop-color="#5C60D5"/>
<stop offset="1" stop-color="#5761D7"/>
</radialGradient>
<radialGradient id="paint1_radial" cx="0" cy="0" r="1" gradientUnits="userSpaceOnUse" gradientTransform="translate(51.1401 494.671) rotate(90) scale(2.91696 91.1791)">
<stop stop-color="#FF2C9C"/>
<stop offset="0.0300632" stop-color="#F62F9F"/>
<stop offset="0.2023" stop-color="#C63EB0"/>
<stop offset="0.3737" stop-color="#9E4BBE"/>
<stop offset="0.5413" stop-color="#7F54C9"/>
<stop offset="0.7039" stop-color="#695BD1"/>
<stop offset="0.8594" stop-color="#5C60D5"/>
<stop offset="1" stop-color="#5761D7"/>
</radialGradient>
<radialGradient id="paint2_radial" cx="0" cy="0" r="1" gradientUnits="userSpaceOnUse" gradientTransform="translate(11.8371 368.427) rotate(90) scale(91.0092 95.544)">
<stop stop-color="#FF2C9C"/>
<stop offset="0.0300632" stop-color="#F62F9F"/>
<stop offset="0.2023" stop-color="#C63EB0"/>
<stop offset="0.3737" stop-color="#9E4BBE"/>
<stop offset="0.5413" stop-color="#7F54C9"/>
<stop offset="0.7039" stop-color="#695BD1"/>
<stop offset="0.8594" stop-color="#5C60D5"/>
<stop offset="1" stop-color="#5761D7"/>
</radialGradient>
<radialGradient id="paint3_radial" cx="0" cy="0" r="1" gradientUnits="userSpaceOnUse" gradientTransform="translate(329.682 494.731) rotate(90) scale(0.485764 1.45379)">
<stop stop-color="#FF2C9C"/>
<stop offset="0.0300632" stop-color="#F62F9F"/>
<stop offset="0.2023" stop-color="#C63EB0"/>
<stop offset="0.3737" stop-color="#9E4BBE"/>
<stop offset="0.5413" stop-color="#7F54C9"/>
<stop offset="0.7039" stop-color="#695BD1"/>
<stop offset="0.8594" stop-color="#5C60D5"/>
<stop offset="1" stop-color="#5761D7"/>
</radialGradient>
<radialGradient id="paint4_radial" cx="0" cy="0" r="1" gradientUnits="userSpaceOnUse" gradientTransform="translate(0.961387 421.766) rotate(90) scale(16.1405 7.75992)">
<stop stop-color="#FF2C9C"/>
<stop offset="0.0300632" stop-color="#F62F9F"/>
<stop offset="0.2023" stop-color="#C63EB0"/>
<stop offset="0.3737" stop-color="#9E4BBE"/>
<stop offset="0.5413" stop-color="#7F54C9"/>
<stop offset="0.7039" stop-color="#695BD1"/>
<stop offset="0.8594" stop-color="#5C60D5"/>
<stop offset="1" stop-color="#5761D7"/>
</radialGradient>
<radialGradient id="paint5_radial" cx="0" cy="0" r="1" gradientUnits="userSpaceOnUse" gradientTransform="translate(121.236 305.48) rotate(90) scale(136.222 351.46)">
<stop stop-color="#FF2C9C"/>
<stop offset="0.0300632" stop-color="#F62F9F"/>
<stop offset="0.2023" stop-color="#C63EB0"/>
<stop offset="0.3737" stop-color="#9E4BBE"/>
<stop offset="0.5413" stop-color="#7F54C9"/>
<stop offset="0.7039" stop-color="#695BD1"/>
<stop offset="0.8594" stop-color="#5C60D5"/>
<stop offset="1" stop-color="#5761D7"/>
</radialGradient>
<radialGradient id="paint6_radial" cx="0" cy="0" r="1" gradientUnits="userSpaceOnUse" gradientTransform="translate(124.661 276.929) rotate(90) scale(45.8935 88.5925)">
<stop stop-color="#FF2C9C"/>
<stop offset="0.0300632" stop-color="#F62F9F"/>
<stop offset="0.2023" stop-color="#C63EB0"/>
<stop offset="0.3737" stop-color="#9E4BBE"/>
<stop offset="0.5413" stop-color="#7F54C9"/>
<stop offset="0.7039" stop-color="#695BD1"/>
<stop offset="0.8594" stop-color="#5C60D5"/>
<stop offset="1" stop-color="#5761D7"/>
</radialGradient>
<radialGradient id="paint7_radial" cx="0" cy="0" r="1" gradientUnits="userSpaceOnUse" gradientTransform="translate(340.723 400.709) rotate(90) scale(45.6991 88.4308)">
<stop stop-color="#FF2C9C"/>
<stop offset="0.0300632" stop-color="#F62F9F"/>
<stop offset="0.2023" stop-color="#C63EB0"/>
<stop offset="0.3737" stop-color="#9E4BBE"/>
<stop offset="0.5413" stop-color="#7F54C9"/>
<stop offset="0.7039" stop-color="#695BD1"/>
<stop offset="0.8594" stop-color="#5C60D5"/>
<stop offset="1" stop-color="#5761D7"/>
</radialGradient>
<radialGradient id="paint8_radial" cx="0" cy="0" r="1" gradientUnits="userSpaceOnUse" gradientTransform="translate(0.961387 298.12) rotate(90) scale(16.2378 7.75992)">
<stop stop-color="#FF2C9C"/>
<stop offset="0.0300632" stop-color="#F62F9F"/>
<stop offset="0.2023" stop-color="#C63EB0"/>
<stop offset="0.3737" stop-color="#9E4BBE"/>
<stop offset="0.5413" stop-color="#7F54C9"/>
<stop offset="0.7039" stop-color="#695BD1"/>
<stop offset="0.8594" stop-color="#5C60D5"/>
<stop offset="1" stop-color="#5761D7"/>
</radialGradient>
<radialGradient id="paint9_radial" cx="0" cy="0" r="1" gradientUnits="userSpaceOnUse" gradientTransform="translate(11.8371 121.275) rotate(90) scale(91.0092 95.544)">
<stop stop-color="#FF2C9C"/>
<stop offset="0.0300632" stop-color="#F62F9F"/>
<stop offset="0.2023" stop-color="#C63EB0"/>
<stop offset="0.3737" stop-color="#9E4BBE"/>
<stop offset="0.5413" stop-color="#7F54C9"/>
<stop offset="0.7039" stop-color="#695BD1"/>
<stop offset="0.8594" stop-color="#5C60D5"/>
<stop offset="1" stop-color="#5761D7"/>
</radialGradient>
<radialGradient id="paint10_radial" cx="0" cy="0" r="1" gradientUnits="userSpaceOnUse" gradientTransform="translate(11.8371 368.427) rotate(90) scale(91.0092 95.544)">
<stop stop-color="#FF2C9C"/>
<stop offset="0.0300632" stop-color="#F62F9F"/>
<stop offset="0.2023" stop-color="#C63EB0"/>
<stop offset="0.3737" stop-color="#9E4BBE"/>
<stop offset="0.5413" stop-color="#7F54C9"/>
<stop offset="0.7039" stop-color="#695BD1"/>
<stop offset="0.8594" stop-color="#5C60D5"/>
<stop offset="1" stop-color="#5761D7"/>
</radialGradient>
<radialGradient id="paint11_radial" cx="0" cy="0" r="1" gradientUnits="userSpaceOnUse" gradientTransform="translate(33.5484 180.369) rotate(90) scale(181.435 270.789)">
<stop stop-color="#FF2C9C"/>
<stop offset="0.0300632" stop-color="#F62F9F"/>
<stop offset="0.2023" stop-color="#C63EB0"/>
<stop offset="0.3737" stop-color="#9E4BBE"/>
<stop offset="0.5413" stop-color="#7F54C9"/>
<stop offset="0.7039" stop-color="#695BD1"/>
<stop offset="0.8594" stop-color="#5C60D5"/>
<stop offset="1" stop-color="#5761D7"/>
</radialGradient>
<radialGradient id="paint12_radial" cx="0" cy="0" r="1" gradientUnits="userSpaceOnUse" gradientTransform="translate(137.254 169.613) rotate(90) scale(23.1412 44.4579)">
<stop stop-color="#FF2C9C"/>
<stop offset="0.0300632" stop-color="#F62F9F"/>
<stop offset="0.2023" stop-color="#C63EB0"/>
<stop offset="0.3737" stop-color="#9E4BBE"/>
<stop offset="0.5413" stop-color="#7F54C9"/>
<stop offset="0.7039" stop-color="#695BD1"/>
<stop offset="0.8594" stop-color="#5C60D5"/>
<stop offset="1" stop-color="#5761D7"/>
</radialGradient>
<radialGradient id="paint13_radial" cx="0" cy="0" r="1" gradientUnits="userSpaceOnUse" gradientTransform="translate(99.5249 368.562) rotate(90) scale(90.912 176.215)">
<stop stop-color="#FF2C9C"/>
<stop offset="0.0300632" stop-color="#F62F9F"/>
<stop offset="0.2023" stop-color="#C63EB0"/>
<stop offset="0.3737" stop-color="#9E4BBE"/>
<stop offset="0.5413" stop-color="#7F54C9"/>
<stop offset="0.7039" stop-color="#695BD1"/>
<stop offset="0.8594" stop-color="#5C60D5"/>
<stop offset="1" stop-color="#5761D7"/>
</radialGradient>
<radialGradient id="paint14_radial" cx="0" cy="0" r="1" gradientUnits="userSpaceOnUse" gradientTransform="translate(121.125 180.641) rotate(90) scale(181.338 351.622)">
<stop stop-color="#FF2C9C"/>
<stop offset="0.0300632" stop-color="#F62F9F"/>
<stop offset="0.2023" stop-color="#C63EB0"/>
<stop offset="0.3737" stop-color="#9E4BBE"/>
<stop offset="0.5413" stop-color="#7F54C9"/>
<stop offset="0.7039" stop-color="#695BD1"/>
<stop offset="0.8594" stop-color="#5C60D5"/>
<stop offset="1" stop-color="#5761D7"/>
</radialGradient>
<radialGradient id="paint15_radial" cx="0" cy="0" r="1" gradientUnits="userSpaceOnUse" gradientTransform="translate(340.723 277.2) rotate(90) scale(45.6991 88.4308)">
<stop stop-color="#FF2C9C"/>
<stop offset="0.0300632" stop-color="#F62F9F"/>
<stop offset="0.2023" stop-color="#C63EB0"/>
<stop offset="0.3737" stop-color="#9E4BBE"/>
<stop offset="0.5413" stop-color="#7F54C9"/>
<stop offset="0.7039" stop-color="#695BD1"/>
<stop offset="0.8594" stop-color="#5C60D5"/>
<stop offset="1" stop-color="#5761D7"/>
</radialGradient>
<radialGradient id="paint16_radial" cx="0" cy="0" r="1" gradientUnits="userSpaceOnUse" gradientTransform="translate(243.492 368.291) rotate(90) scale(91.1065 176.215)">
<stop stop-color="#FF2C9C"/>
<stop offset="0.0300632" stop-color="#F62F9F"/>
<stop offset="0.2023" stop-color="#C63EB0"/>
<stop offset="0.3737" stop-color="#9E4BBE"/>
<stop offset="0.5413" stop-color="#7F54C9"/>
<stop offset="0.7039" stop-color="#695BD1"/>
<stop offset="0.8594" stop-color="#5C60D5"/>
<stop offset="1" stop-color="#5761D7"/>
</radialGradient>
<radialGradient id="paint17_radial" cx="0" cy="0" r="1" gradientUnits="userSpaceOnUse" gradientTransform="translate(11.8371 -2.36517) rotate(90) scale(91.0092 95.544)">
<stop stop-color="#FF2C9C"/>
<stop offset="0.0300632" stop-color="#F62F9F"/>
<stop offset="0.2023" stop-color="#C63EB0"/>
<stop offset="0.3737" stop-color="#9E4BBE"/>
<stop offset="0.5413" stop-color="#7F54C9"/>
<stop offset="0.7039" stop-color="#695BD1"/>
<stop offset="0.8594" stop-color="#5C60D5"/>
<stop offset="1" stop-color="#5761D7"/>
</radialGradient>
<radialGradient id="paint18_radial" cx="0" cy="0" r="1" gradientUnits="userSpaceOnUse" gradientTransform="translate(52.657 153.682) rotate(90) scale(45.6991 88.4308)">
<stop stop-color="#FF2C9C"/>
<stop offset="0.0300632" stop-color="#F62F9F"/>
<stop offset="0.2023" stop-color="#C63EB0"/>
<stop offset="0.3737" stop-color="#9E4BBE"/>
<stop offset="0.5413" stop-color="#7F54C9"/>
<stop offset="0.7039" stop-color="#695BD1"/>
<stop offset="0.8594" stop-color="#5C60D5"/>
<stop offset="1" stop-color="#5761D7"/>
</radialGradient>
<radialGradient id="paint19_radial" cx="0" cy="0" r="1" gradientUnits="userSpaceOnUse" gradientTransform="translate(0.961387 174.463) rotate(90) scale(16.2378 7.75992)">
<stop stop-color="#FF2C9C"/>
<stop offset="0.0300632" stop-color="#F62F9F"/>
<stop offset="0.2023" stop-color="#C63EB0"/>
<stop offset="0.3737" stop-color="#9E4BBE"/>
<stop offset="0.5413" stop-color="#7F54C9"/>
<stop offset="0.7039" stop-color="#695BD1"/>
<stop offset="0.8594" stop-color="#5C60D5"/>
<stop offset="1" stop-color="#5761D7"/>
</radialGradient>
<radialGradient id="paint20_radial" cx="0" cy="0" r="1" gradientUnits="userSpaceOnUse" gradientTransform="translate(6.40925 29.8996) rotate(90) scale(45.6991 51.7328)">
<stop stop-color="#FF2C9C"/>
<stop offset="0.0300632" stop-color="#F62F9F"/>
<stop offset="0.2023" stop-color="#C63EB0"/>
<stop offset="0.3737" stop-color="#9E4BBE"/>
<stop offset="0.5413" stop-color="#7F54C9"/>
<stop offset="0.7039" stop-color="#695BD1"/>
<stop offset="0.8594" stop-color="#5C60D5"/>
<stop offset="1" stop-color="#5761D7"/>
</radialGradient>
<radialGradient id="paint21_radial" cx="0" cy="0" r="1" gradientUnits="userSpaceOnUse" gradientTransform="translate(11.8371 -2.36517) rotate(90) scale(91.0092 95.544)">
<stop stop-color="#FF2C9C"/>
<stop offset="0.0300632" stop-color="#F62F9F"/>
<stop offset="0.2023" stop-color="#C63EB0"/>
<stop offset="0.3737" stop-color="#9E4BBE"/>
<stop offset="0.5413" stop-color="#7F54C9"/>
<stop offset="0.7039" stop-color="#695BD1"/>
<stop offset="0.8594" stop-color="#5C60D5"/>
<stop offset="1" stop-color="#5761D7"/>
</radialGradient>
<radialGradient id="paint22_radial" cx="0" cy="0" r="1" gradientUnits="userSpaceOnUse" gradientTransform="translate(99.5249 244.789) rotate(90) scale(91.0092 176.215)">
<stop stop-color="#FF2C9C"/>
<stop offset="0.0300632" stop-color="#F62F9F"/>
<stop offset="0.2023" stop-color="#C63EB0"/>
<stop offset="0.3737" stop-color="#9E4BBE"/>
<stop offset="0.5413" stop-color="#7F54C9"/>
<stop offset="0.7039" stop-color="#695BD1"/>
<stop offset="0.8594" stop-color="#5C60D5"/>
<stop offset="1" stop-color="#5761D7"/>
</radialGradient>
<radialGradient id="paint23_radial" cx="0" cy="0" r="1" gradientUnits="userSpaceOnUse" gradientTransform="translate(243.472 245.054) rotate(90) scale(90.912 176.053)">
<stop stop-color="#FF2C9C"/>
<stop offset="0.0300632" stop-color="#F62F9F"/>
<stop offset="0.2023" stop-color="#C63EB0"/>
<stop offset="0.3737" stop-color="#9E4BBE"/>
<stop offset="0.5413" stop-color="#7F54C9"/>
<stop offset="0.7039" stop-color="#695BD1"/>
<stop offset="0.8594" stop-color="#5C60D5"/>
<stop offset="1" stop-color="#5761D7"/>
</radialGradient>
<radialGradient id="paint24_radial" cx="0" cy="0" r="1" gradientUnits="userSpaceOnUse" gradientTransform="translate(39.3189 367.341) rotate(90) scale(5.83392 9.6999)">
<stop stop-color="#FF2C9C"/>
<stop offset="0.0300632" stop-color="#F62F9F"/>
<stop offset="0.2023" stop-color="#C63EB0"/>
<stop offset="0.3737" stop-color="#9E4BBE"/>
<stop offset="0.5413" stop-color="#7F54C9"/>
<stop offset="0.7039" stop-color="#695BD1"/>
<stop offset="0.8594" stop-color="#5C60D5"/>
<stop offset="1" stop-color="#5761D7"/>
</radialGradient>
<radialGradient id="paint25_radial" cx="0" cy="0" r="1" gradientUnits="userSpaceOnUse" gradientTransform="translate(75.3111 429.107) rotate(90) scale(5.83392 9.6999)">
<stop stop-color="#FF2C9C"/>
<stop offset="0.0300632" stop-color="#F62F9F"/>
<stop offset="0.2023" stop-color="#C63EB0"/>
<stop offset="0.3737" stop-color="#9E4BBE"/>
<stop offset="0.5413" stop-color="#7F54C9"/>
<stop offset="0.7039" stop-color="#695BD1"/>
<stop offset="0.8594" stop-color="#5C60D5"/>
<stop offset="1" stop-color="#5761D7"/>
</radialGradient>
<radialGradient id="paint26_radial" cx="0" cy="0" r="1" gradientUnits="userSpaceOnUse" gradientTransform="translate(39.3189 490.996) rotate(90) scale(5.73669 9.6999)">
<stop stop-color="#FF2C9C"/>
<stop offset="0.0300632" stop-color="#F62F9F"/>
<stop offset="0.2023" stop-color="#C63EB0"/>
<stop offset="0.3737" stop-color="#9E4BBE"/>
<stop offset="0.5413" stop-color="#7F54C9"/>
<stop offset="0.7039" stop-color="#695BD1"/>
<stop offset="0.8594" stop-color="#5C60D5"/>
<stop offset="1" stop-color="#5761D7"/>
</radialGradient>
<radialGradient id="paint27_radial" cx="0" cy="0" r="1" gradientUnits="userSpaceOnUse" gradientTransform="translate(165.221 274.645) rotate(90) scale(5.83392 9.6999)">
<stop stop-color="#FF2C9C"/>
<stop offset="0.0300632" stop-color="#F62F9F"/>
<stop offset="0.2023" stop-color="#C63EB0"/>
<stop offset="0.3737" stop-color="#9E4BBE"/>
<stop offset="0.5413" stop-color="#7F54C9"/>
<stop offset="0.7039" stop-color="#695BD1"/>
<stop offset="0.8594" stop-color="#5C60D5"/>
<stop offset="1" stop-color="#5761D7"/>
</radialGradient>
<radialGradient id="paint28_radial" cx="0" cy="0" r="1" gradientUnits="userSpaceOnUse" gradientTransform="translate(129.231 274.645) rotate(90) scale(5.83392 9.6999)">
<stop stop-color="#FF2C9C"/>
<stop offset="0.0300632" stop-color="#F62F9F"/>
<stop offset="0.2023" stop-color="#C63EB0"/>
<stop offset="0.3737" stop-color="#9E4BBE"/>
<stop offset="0.5413" stop-color="#7F54C9"/>
<stop offset="0.7039" stop-color="#695BD1"/>
<stop offset="0.8594" stop-color="#5C60D5"/>
<stop offset="1" stop-color="#5761D7"/>
</radialGradient>
<radialGradient id="paint29_radial" cx="0" cy="0" r="1" gradientUnits="userSpaceOnUse" gradientTransform="translate(39.3189 120.187) rotate(90) scale(5.83392 9.6999)">
<stop stop-color="#FF2C9C"/>
<stop offset="0.0300632" stop-color="#F62F9F"/>
<stop offset="0.2023" stop-color="#C63EB0"/>
<stop offset="0.3737" stop-color="#9E4BBE"/>
<stop offset="0.5413" stop-color="#7F54C9"/>
<stop offset="0.7039" stop-color="#695BD1"/>
<stop offset="0.8594" stop-color="#5C60D5"/>
<stop offset="1" stop-color="#5761D7"/>
</radialGradient>
<radialGradient id="paint30_radial" cx="0" cy="0" r="1" gradientUnits="userSpaceOnUse" gradientTransform="translate(39.3189 490.996) rotate(90) scale(5.73669 9.6999)">
<stop stop-color="#FF2C9C"/>
<stop offset="0.0300632" stop-color="#F62F9F"/>
<stop offset="0.2023" stop-color="#C63EB0"/>
<stop offset="0.3737" stop-color="#9E4BBE"/>
<stop offset="0.5413" stop-color="#7F54C9"/>
<stop offset="0.7039" stop-color="#695BD1"/>
<stop offset="0.8594" stop-color="#5C60D5"/>
<stop offset="1" stop-color="#5761D7"/>
</radialGradient>
<radialGradient id="paint31_radial" cx="0" cy="0" r="1" gradientUnits="userSpaceOnUse" gradientTransform="translate(39.3189 367.341) rotate(90) scale(5.83392 9.6999)">
<stop stop-color="#FF2C9C"/>
<stop offset="0.0300632" stop-color="#F62F9F"/>
<stop offset="0.2023" stop-color="#C63EB0"/>
<stop offset="0.3737" stop-color="#9E4BBE"/>
<stop offset="0.5413" stop-color="#7F54C9"/>
<stop offset="0.7039" stop-color="#695BD1"/>
<stop offset="0.8594" stop-color="#5C60D5"/>
<stop offset="1" stop-color="#5761D7"/>
</radialGradient>
<radialGradient id="paint32_radial" cx="0" cy="0" r="1" gradientUnits="userSpaceOnUse" gradientTransform="translate(147.294 429.107) rotate(90) scale(5.83392 9.6999)">
<stop stop-color="#FF2C9C"/>
<stop offset="0.0300632" stop-color="#F62F9F"/>
<stop offset="0.2023" stop-color="#C63EB0"/>
<stop offset="0.3737" stop-color="#9E4BBE"/>
<stop offset="0.5413" stop-color="#7F54C9"/>
<stop offset="0.7039" stop-color="#695BD1"/>
<stop offset="0.8594" stop-color="#5C60D5"/>
<stop offset="1" stop-color="#5761D7"/>
</radialGradient>
<radialGradient id="paint33_radial" cx="0" cy="0" r="1" gradientUnits="userSpaceOnUse" gradientTransform="translate(3.32673 429.107) rotate(90) scale(5.83392 9.6999)">
<stop stop-color="#FF2C9C"/>
<stop offset="0.0300632" stop-color="#F62F9F"/>
<stop offset="0.2023" stop-color="#C63EB0"/>
<stop offset="0.3737" stop-color="#9E4BBE"/>
<stop offset="0.5413" stop-color="#7F54C9"/>
<stop offset="0.7039" stop-color="#695BD1"/>
<stop offset="0.8594" stop-color="#5C60D5"/>
<stop offset="1" stop-color="#5761D7"/>
</radialGradient>
<radialGradient id="paint34_radial" cx="0" cy="0" r="1" gradientUnits="userSpaceOnUse" gradientTransform="translate(156.323 197.347) rotate(90) scale(5.83392 9.6999)">
<stop stop-color="#FF2C9C"/>
<stop offset="0.0300632" stop-color="#F62F9F"/>
<stop offset="0.2023" stop-color="#C63EB0"/>
<stop offset="0.3737" stop-color="#9E4BBE"/>
<stop offset="0.5413" stop-color="#7F54C9"/>
<stop offset="0.7039" stop-color="#695BD1"/>
<stop offset="0.8594" stop-color="#5C60D5"/>
<stop offset="1" stop-color="#5761D7"/>
</radialGradient>
<radialGradient id="paint35_radial" cx="0" cy="0" r="1" gradientUnits="userSpaceOnUse" gradientTransform="translate(138.262 166.538) rotate(90) scale(5.83392 9.6999)">
<stop stop-color="#FF2C9C"/>
<stop offset="0.0300632" stop-color="#F62F9F"/>
<stop offset="0.2023" stop-color="#C63EB0"/>
<stop offset="0.3737" stop-color="#9E4BBE"/>
<stop offset="0.5413" stop-color="#7F54C9"/>
<stop offset="0.7039" stop-color="#695BD1"/>
<stop offset="0.8594" stop-color="#5C60D5"/>
<stop offset="1" stop-color="#5761D7"/>
</radialGradient>
<radialGradient id="paint36_radial" cx="0" cy="0" r="1" gradientUnits="userSpaceOnUse" gradientTransform="translate(129.231 181.94) rotate(90) scale(5.83392 9.6999)">
<stop stop-color="#FF2C9C"/>
<stop offset="0.0300632" stop-color="#F62F9F"/>
<stop offset="0.2023" stop-color="#C63EB0"/>
<stop offset="0.3737" stop-color="#9E4BBE"/>
<stop offset="0.5413" stop-color="#7F54C9"/>
<stop offset="0.7039" stop-color="#695BD1"/>
<stop offset="0.8594" stop-color="#5C60D5"/>
<stop offset="1" stop-color="#5761D7"/>
</radialGradient>
<radialGradient id="paint37_radial" cx="0" cy="0" r="1" gradientUnits="userSpaceOnUse" gradientTransform="translate(399.233 305.588) rotate(90) scale(5.83392 9.6999)">
<stop stop-color="#FF2C9C"/>
<stop offset="0.0300632" stop-color="#F62F9F"/>
<stop offset="0.2023" stop-color="#C63EB0"/>
<stop offset="0.3737" stop-color="#9E4BBE"/>
<stop offset="0.5413" stop-color="#7F54C9"/>
<stop offset="0.7039" stop-color="#695BD1"/>
<stop offset="0.8594" stop-color="#5C60D5"/>
<stop offset="1" stop-color="#5761D7"/>
</radialGradient>
<radialGradient id="paint38_radial" cx="0" cy="0" r="1" gradientUnits="userSpaceOnUse" gradientTransform="translate(255.266 367.345) rotate(90) scale(5.83392 9.6999)">
<stop stop-color="#FF2C9C"/>
<stop offset="0.0300632" stop-color="#F62F9F"/>
<stop offset="0.2023" stop-color="#C63EB0"/>
<stop offset="0.3737" stop-color="#9E4BBE"/>
<stop offset="0.5413" stop-color="#7F54C9"/>
<stop offset="0.7039" stop-color="#695BD1"/>
<stop offset="0.8594" stop-color="#5C60D5"/>
<stop offset="1" stop-color="#5761D7"/>
</radialGradient>
<radialGradient id="paint39_radial" cx="0" cy="0" r="1" gradientUnits="userSpaceOnUse" gradientTransform="translate(219.276 429.107) rotate(90) scale(5.83392 9.6999)">
<stop stop-color="#FF2C9C"/>
<stop offset="0.0300632" stop-color="#F62F9F"/>
<stop offset="0.2023" stop-color="#C63EB0"/>
<stop offset="0.3737" stop-color="#9E4BBE"/>
<stop offset="0.5413" stop-color="#7F54C9"/>
<stop offset="0.7039" stop-color="#695BD1"/>
<stop offset="0.8594" stop-color="#5C60D5"/>
<stop offset="1" stop-color="#5761D7"/>
</radialGradient>
<radialGradient id="paint40_radial" cx="0" cy="0" r="1" gradientUnits="userSpaceOnUse" gradientTransform="translate(39.3189 120.187) rotate(90) scale(5.83392 9.6999)">
<stop stop-color="#FF2C9C"/>
<stop offset="0.0300632" stop-color="#F62F9F"/>
<stop offset="0.2023" stop-color="#C63EB0"/>
<stop offset="0.3737" stop-color="#9E4BBE"/>
<stop offset="0.5413" stop-color="#7F54C9"/>
<stop offset="0.7039" stop-color="#695BD1"/>
<stop offset="0.8594" stop-color="#5C60D5"/>
<stop offset="1" stop-color="#5761D7"/>
</radialGradient>
<radialGradient id="paint41_radial" cx="0" cy="0" r="1" gradientUnits="userSpaceOnUse" gradientTransform="translate(75.3092 58.4294) rotate(90) scale(5.83392 9.6999)">
<stop stop-color="#FF2C9C"/>
<stop offset="0.0300632" stop-color="#F62F9F"/>
<stop offset="0.2023" stop-color="#C63EB0"/>
<stop offset="0.3737" stop-color="#9E4BBE"/>
<stop offset="0.5413" stop-color="#7F54C9"/>
<stop offset="0.7039" stop-color="#695BD1"/>
<stop offset="0.8594" stop-color="#5C60D5"/>
<stop offset="1" stop-color="#5761D7"/>
</radialGradient>
<radialGradient id="paint42_radial" cx="0" cy="0" r="1" gradientUnits="userSpaceOnUse" gradientTransform="translate(111.301 181.94) rotate(90) scale(5.83392 9.6999)">
<stop stop-color="#FF2C9C"/>
<stop offset="0.0300632" stop-color="#F62F9F"/>
<stop offset="0.2023" stop-color="#C63EB0"/>
<stop offset="0.3737" stop-color="#9E4BBE"/>
<stop offset="0.5413" stop-color="#7F54C9"/>
<stop offset="0.7039" stop-color="#695BD1"/>
<stop offset="0.8594" stop-color="#5C60D5"/>
<stop offset="1" stop-color="#5761D7"/>
</radialGradient>
<radialGradient id="paint43_radial" cx="0" cy="0" r="1" gradientUnits="userSpaceOnUse" gradientTransform="translate(21.2564 89.2449) rotate(90) scale(5.83392 9.6999)">
<stop stop-color="#FF2C9C"/>
<stop offset="0.0300632" stop-color="#F62F9F"/>
<stop offset="0.2023" stop-color="#C63EB0"/>
<stop offset="0.3737" stop-color="#9E4BBE"/>
<stop offset="0.5413" stop-color="#7F54C9"/>
<stop offset="0.7039" stop-color="#695BD1"/>
<stop offset="0.8594" stop-color="#5C60D5"/>
<stop offset="1" stop-color="#5761D7"/>
</radialGradient>
<radialGradient id="paint44_radial" cx="0" cy="0" r="1" gradientUnits="userSpaceOnUse" gradientTransform="translate(21.2564 27.4871) rotate(90) scale(5.83392 9.6999)">
<stop stop-color="#FF2C9C"/>
<stop offset="0.0300632" stop-color="#F62F9F"/>
<stop offset="0.2023" stop-color="#C63EB0"/>
<stop offset="0.3737" stop-color="#9E4BBE"/>
<stop offset="0.5413" stop-color="#7F54C9"/>
<stop offset="0.7039" stop-color="#695BD1"/>
<stop offset="0.8594" stop-color="#5C60D5"/>
<stop offset="1" stop-color="#5761D7"/>
</radialGradient>
<radialGradient id="paint45_radial" cx="0" cy="0" r="1" gradientUnits="userSpaceOnUse" gradientTransform="translate(183.284 367.345) rotate(90) scale(5.83392 9.6999)">
<stop stop-color="#FF2C9C"/>
<stop offset="0.0300632" stop-color="#F62F9F"/>
<stop offset="0.2023" stop-color="#C63EB0"/>
<stop offset="0.3737" stop-color="#9E4BBE"/>
<stop offset="0.5413" stop-color="#7F54C9"/>
<stop offset="0.7039" stop-color="#695BD1"/>
<stop offset="0.8594" stop-color="#5C60D5"/>
<stop offset="1" stop-color="#5761D7"/>
</radialGradient>
<radialGradient id="paint46_radial" cx="0" cy="0" r="1" gradientUnits="userSpaceOnUse" gradientTransform="translate(183.284 243.703) rotate(90) scale(5.83392 9.6999)">
<stop stop-color="#FF2C9C"/>
<stop offset="0.0300632" stop-color="#F62F9F"/>
<stop offset="0.2023" stop-color="#C63EB0"/>
<stop offset="0.3737" stop-color="#9E4BBE"/>
<stop offset="0.5413" stop-color="#7F54C9"/>
<stop offset="0.7039" stop-color="#695BD1"/>
<stop offset="0.8594" stop-color="#5C60D5"/>
<stop offset="1" stop-color="#5761D7"/>
</radialGradient>
<radialGradient id="paint47_radial" cx="0" cy="0" r="1" gradientUnits="userSpaceOnUse" gradientTransform="translate(363.243 305.588) rotate(90) scale(5.83392 9.6999)">
<stop stop-color="#FF2C9C"/>
<stop offset="0.0300632" stop-color="#F62F9F"/>
<stop offset="0.2023" stop-color="#C63EB0"/>
<stop offset="0.3737" stop-color="#9E4BBE"/>
<stop offset="0.5413" stop-color="#7F54C9"/>
<stop offset="0.7039" stop-color="#695BD1"/>
<stop offset="0.8594" stop-color="#5C60D5"/>
<stop offset="1" stop-color="#5761D7"/>
</radialGradient>
<radialGradient id="paint48_radial" cx="0" cy="0" r="1" gradientUnits="userSpaceOnUse" gradientTransform="translate(219.276 305.588) rotate(90) scale(5.83392 9.6999)">
<stop stop-color="#FF2C9C"/>
<stop offset="0.0300632" stop-color="#F62F9F"/>
<stop offset="0.2023" stop-color="#C63EB0"/>
<stop offset="0.3737" stop-color="#9E4BBE"/>
<stop offset="0.5413" stop-color="#7F54C9"/>
<stop offset="0.7039" stop-color="#695BD1"/>
<stop offset="0.8594" stop-color="#5C60D5"/>
<stop offset="1" stop-color="#5761D7"/>
</radialGradient>
</defs>
</svg>
